<?xml version="1.0" standalone="no"?>
<!DOCTYPE svg PUBLIC "-//W3C//DTD SVG 1.1//EN" "http://www.w3.org/Graphics/SVG/1.1/DTD/svg11.dtd" >
<svg xmlns="http://www.w3.org/2000/svg">
<metadata>Generated by IcoMoon</metadata>
<defs>
<font id="Lyfeicons" horiz-adv-x="1024">
<font-face units-per-em="1024" ascent="870.850439882698" descent="-153.14956011730206" />
<missing-glyph horiz-adv-x="1024" />
<glyph unicode="&#x20;" horiz-adv-x="512.5004887585533" d="" />
<glyph unicode="&#xe000;" glyph-name="uniE000" d="M898.191 412.847h-336.822v336.822h-96.235v-336.822h-336.822v-96.235h336.822v-336.822h96.235v336.822h336.822z" />
<glyph unicode="&#xe001;" glyph-name="uniE001" d="M128.313 412.847h769.878v-96.235h-769.878v96.235z" />
<glyph unicode="&#xe002;" glyph-name="uniE002" d="M824.828 602.911l-68.037 68.037-238.181-238.181-238.181 238.181-68.037-68.037 238.181-238.181-238.181-238.181 68.037-68.037 238.181 238.181 238.181-238.181 68.037 68.037-238.181 238.181z" />
<glyph unicode="&#xe003;" glyph-name="uniE003" d="M874.421 542.795l-68.037 68.037-416.825-416.857-169.437 169.373-68.037-68.037 238.085-236.833z" />
<glyph unicode="&#xe004;" glyph-name="uniE004" d="M855.845 716.859l81.396-81.42-614.148-613.975-81.396 81.42 614.148 613.975zM784.193 788.46l40.716-40.716-614.062-614.062-40.716 40.716 614.062 614.062zM296.146-3.432l-206.777-55.431 55.399 206.841z" />
<glyph unicode="&#xe005;" glyph-name="uniE005" d="M128.248 412.847h769.878v-96.235h-769.878v96.235zM128.248 76.090h769.878v-96.235h-769.878v96.235zM128.248 749.668h769.878v-96.235h-769.878v96.235z" />
<glyph unicode="&#xe006;" glyph-name="uniE006" d="M809.624 455.383c-4.106 9.913-8.692 19.471-13.633 28.71l48.278 101.559c-22.711 29.704-48.92 55.881-77.982 78.046l-101.624-48.278c-18.669 9.977-38.269 18.093-58.575 24.252l-37.66 105.987c-36.216 4.876-73.235 4.908-110.318-0.064l-37.66-105.922c-10.041-3.047-20.018-6.543-29.929-10.649s-19.439-8.692-28.742-13.633l-101.527 48.246c-29.736-22.679-55.881-48.856-78.046-77.95l48.278-101.624c-10.009-18.669-18.093-38.301-24.252-58.575l-106.019-37.724c-4.876-36.216-4.876-73.235 0.064-110.318l105.922-37.66c3.047-10.041 6.575-19.985 10.649-29.897 4.106-9.913 8.692-19.471 13.633-28.71l-48.278-101.559c22.743-29.736 48.92-55.881 77.982-78.078l101.624 48.31c18.669-9.977 38.269-18.093 58.575-24.252l37.692-106.019c36.248-4.876 73.235-4.876 110.318 0.064l37.66 105.922c10.041 3.047 20.082 6.575 29.993 10.681 9.913 4.074 19.407 8.692 28.678 13.601l101.527-48.246c29.736 22.679 55.913 48.888 78.078 77.95l-48.31 101.624c10.009 18.669 18.093 38.301 24.252 58.575l106.019 37.724c4.876 36.216 4.908 73.202-0.064 110.318l-105.922 37.66c-3.047 10.073-6.607 20.050-10.681 29.929zM599.222 125.202c-114.616-47.475-245.944 6.961-293.388 121.513s6.929 245.944 121.545 293.388c114.552 47.443 245.88-6.993 293.355-121.545s-6.961-245.912-121.513-293.355z" />
<glyph unicode="&#xe007;" glyph-name="uniE007" d="M590.304 529.451c-3.080 7.442-6.479 14.595-10.201 21.524l36.184 76.089c-17.002 22.231-36.666 41.862-58.414 58.446l-76.121-36.184c-14.019 7.474-28.71 13.569-43.883 18.189l-28.262 79.426c-27.138 3.626-54.855 3.658-82.634-0.064l-28.23-79.362c-7.538-2.277-15.013-4.908-22.455-7.988-7.378-3.080-14.563-6.479-21.492-10.201l-76.089 36.152c-22.263-17.002-41.862-36.634-58.446-58.382l36.184-76.153c-7.506-13.987-13.601-28.71-18.157-43.851l-79.459-28.294c-3.658-27.138-3.658-54.855 0.064-82.634l79.362-28.23c2.277-7.506 4.908-14.981 7.988-22.391s6.479-14.563 10.201-21.492l-36.184-76.089c17.034-22.263 36.666-41.862 58.414-58.446l76.121 36.184c14.019-7.474 28.71-13.601 43.883-18.189l28.262-79.426c27.171-3.658 54.855-3.658 82.634 0.032l28.23 79.394c7.506 2.277 15.045 4.908 22.455 7.988s14.563 6.479 21.46 10.201l76.089-36.184c22.263 16.97 41.894 36.666 58.478 58.382l-36.216 76.153c7.506 14.019 13.601 28.71 18.157 43.883l79.459 28.262c3.658 27.138 3.658 54.855-0.064 82.634l-79.362 28.262c-2.245 7.474-4.876 14.949-7.956 22.359zM432.672 282.096c-85.906-35.575-184.258 5.197-219.832 91.038s5.165 184.258 91.070 219.8c85.842 35.575 184.194-5.197 219.768-91.038s-5.165-184.29-91.006-219.8zM951.537 132.066l-41.188 11.42c-6.993 25.695-20.402 48.696-38.591 67.043l10.681 41.348c-14.852 11.934-31.565 21.557-49.624 28.646l-30.571-30.025c-12.35 3.208-25.246 5.1-38.591 5.1s-26.241-1.925-38.591-5.1l-30.571 30.025c-18.061-7.089-34.773-16.712-49.624-28.646l10.681-41.348c-18.189-18.349-31.597-41.348-38.591-67.043l-41.188-11.42c-1.411-9.367-2.373-18.893-2.373-28.678s0.962-19.311 2.373-28.71l41.188-11.388c6.993-25.695 20.402-48.696 38.591-67.043l-10.681-41.348c14.852-11.934 31.565-21.557 49.624-28.646l30.571 30.025c12.35-3.24 25.246-5.133 38.591-5.133s26.241 1.925 38.591 5.133l30.571-30.025c18.061 7.089 34.773 16.712 49.624 28.646l-10.681 41.348c18.189 18.349 31.597 41.348 38.591 67.043l41.188 11.388c1.411 9.399 2.373 18.925 2.373 28.71s-0.962 19.311-2.373 28.678zM763.655 14.628c-49.016 0-88.825 39.713-88.825 88.793 0 49.016 39.777 88.793 88.825 88.793s88.825-39.745 88.825-88.793c-0.032-49.080-39.809-88.793-88.825-88.793z" />
<glyph unicode="&#xe008;" glyph-name="uniE008" d="M61.526 332.651c109.033-158.081 270.965-290.34 451.662-290.34s342.628 132.258 451.662 290.34c-109.033 158.113-270.965 290.373-451.662 290.373s-342.628-132.258-451.662-290.373zM124.11 307.503c93.894 134.858 233.242 220.313 389.078 220.313s295.184-85.456 389.078-220.313c-93.894-134.858-233.242-220.313-389.078-220.313s-295.184 85.456-389.078 220.313zM513.188 446.112c-21.428 0-41.798-4.748-60.083-13.088 31.789-9.271 55.239-38.333 55.239-73.106 0-42.215-34.291-76.507-76.507-76.507-26.337 0-49.56 13.345-63.355 33.65-0.61-5.517-0.994-11.035-0.994-16.68 0-80.388 65.28-145.699 145.699-145.699s145.699 65.312 145.699 145.699c0 80.452-65.28 145.731-145.699 145.731z" />
<glyph unicode="&#xe009;" glyph-name="uniE009" d="M655.937 457.212h128.313v-128.313h-128.313v128.313zM784.249 842.151h128.313v-128.313h-128.313v128.313zM655.937 713.837h128.313v-128.313h-128.313v128.313zM784.249 585.524h128.313v-128.313h-128.313v128.313zM961.129 71.791l-480.179-0.032c-67.108 0-134.215 25.63-185.412 76.827-102.362 102.394-102.362 268.399 0 370.825 36.024 36.056 79.971 58.961 126.228 69.514v-66.851l201.836 116.509-201.836 116.573v-77.212c-68.84-11.612-134.826-43.497-187.979-96.683-136.557-136.557-136.557-357.897 0-494.422 68.263-68.295 157.761-102.426 247.226-102.426v0.032h480.147v87.349z" />
<glyph unicode="&#xe00a;" glyph-name="uniE00A" d="M320.782 364.794c0-53.149-43.086-96.235-96.235-96.235s-96.235 43.086-96.235 96.235c0 53.149 43.086 96.235 96.235 96.235s96.235-43.086 96.235-96.235zM609.487 364.794c0-53.149-43.086-96.235-96.235-96.235s-96.235 43.086-96.235 96.235c0 53.149 43.086 96.235 96.235 96.235s96.235-43.086 96.235-96.235zM898.191 364.794c0-53.149-43.086-96.235-96.235-96.235s-96.235 43.086-96.235 96.235c0 53.149 43.086 96.235 96.235 96.235s96.235-43.086 96.235-96.235z" />
<glyph unicode="&#xe00b;" glyph-name="uniE00B" d="M609.487 76.090c0-53.149-43.086-96.235-96.235-96.235s-96.235 43.086-96.235 96.235c0 53.149 43.086 96.235 96.235 96.235s96.235-43.086 96.235-96.235zM609.487 364.794c0-53.149-43.086-96.235-96.235-96.235s-96.235 43.086-96.235 96.235c0 53.149 43.086 96.235 96.235 96.235s96.235-43.086 96.235-96.235zM609.487 653.497c0-53.149-43.086-96.235-96.235-96.235s-96.235 43.086-96.235 96.235c0 53.149 43.086 96.235 96.235 96.235s96.235-43.086 96.235-96.235z" />
<glyph unicode="&#xe00c;" glyph-name="uniE00C" d="M911.503 254.99c0 73.138-50.491 134.536-118.53 151.25-3.882 62.296-55.495 111.696-118.786 111.696-17.867 0-34.709-4.042-49.946-11.099-35.221 72.914-109.932 123.244-196.352 123.244-120.036 0-217.394-97.005-218.036-216.914-56.009-26.273-94.856-83.211-94.856-149.197 0-87.895 68.808-159.718 155.516-164.497h502.089c78.11 8.436 138.9 75.159 138.9 155.516z" />
<glyph unicode="&#xe00d;" glyph-name="uniE00D" d="M513.252 749.732l76.635-98.93 115.834 47.379 16.905-124.014 124.014-16.905-47.379-115.834 98.93-76.635-98.93-76.635 47.379-115.834-124.014-16.905-16.905-124.014-115.834 47.379-76.635-98.93-76.635 98.93-115.834-47.379-16.905 124.014-124.014 16.905 47.379 115.834-98.93 76.635 98.93 76.635-47.379 115.834 124.014 16.905 16.905 124.014 115.834-47.379z" />
<glyph unicode="&#xe00e;" glyph-name="uniE00E" d="M299.418 587.289h422.342v-607.498h-422.342v607.498zM580.104 718.265v32.078h-133.638v-32.078h-200.554v-96.235h534.681v96.235z" />
<glyph unicode="&#xe00f;" glyph-name="uniE00F" d="M320.782 646.474h288.705v96.235h-384.94v-563.359h96.235zM417.017 550.239h384.94v-563.391h-384.94v563.391z" />
<glyph unicode="&#xe010;" glyph-name="uniE010" d="M408.42-2.277l337.398 337.366-337.398 337.398-61.078-61.046 276.355-276.355-276.355-276.291zM352.861 749.732v-138.9l299.098-300.22-299.098-300.252v-30.507h545.331v769.878zM337.753 535.098h-132.194l172.484-176.366h-313.886v-96.235h313.886l-172.484-176.398h132.194l223.617 224.515z" />
<glyph unicode="&#xe011;" glyph-name="uniE011" d="M513.316 735.361l-0.064-96.235c159.462-0.032 288.705-129.243 288.705-288.705s-129.243-288.705-288.705-288.705-288.705 129.243-288.705 288.705c0 56.105 16.296 108.297 43.915 152.596l52.319-52.287 66.402 247.901-247.869-66.402 59.761-59.793c-44.396-62.777-70.764-139.252-70.764-222.014 0-212.615 172.356-384.94 384.94-384.94 212.647 0 384.94 172.324 384.94 384.94s-172.292 384.908-384.875 384.94z" />
<glyph unicode="&#xe012;" glyph-name="uniE012" d="M898.191 360.046c0 212.615-172.292 384.94-384.875 384.94l-0.064-96.235c159.462 0 288.705-129.243 288.705-288.705 0-56.041-16.232-108.201-43.851-152.468l-52.319 52.352-66.466-247.901 247.933 66.37-59.697 59.761c44.332 62.745 70.636 139.156 70.636 221.885zM224.547 360.046c0 56.105 16.296 108.297 43.979 152.596l52.255-52.287 66.402 247.901-247.837-66.402 59.761-59.825c-44.428-62.777-70.797-139.22-70.797-221.982 0-212.583 172.356-384.908 384.94-384.94v96.235c-159.462 0.032-288.705 129.243-288.705 288.705z" />
<glyph unicode="&#xe013;" glyph-name="uniE013" d="M128.313-20.209h192.47c0 106.372-86.098 192.47-192.47 192.47v-192.47zM128.313 300.509c177.296-0.032 320.718-143.486 320.718-320.718h128.377c0 247.997-201.066 449.096-449.096 449.096v-128.377zM128.313 557.199c318.889 0 577.408-258.518 577.408-577.408h128.313c0 389.751-315.971 705.722-705.722 705.722v-128.313z" />
<glyph unicode="&#xe014;" glyph-name="uniE014" d="M452.977 364.794l256.626 256.626h-136.076l-256.626-256.626 256.626-256.626h136.076z" />
<glyph unicode="&#xe015;" glyph-name="uniE015" d="M573.527 364.794l-256.626-256.626h136.076l256.626 256.626-256.626 256.626h-136.076z" />
<glyph unicode="&#xe016;" glyph-name="uniE016" d="M513.252 425.069l256.626-256.626v136.076l-256.626 256.626-256.626-256.626v-136.076z" />
<glyph unicode="&#xe017;" glyph-name="uniE017" d="M513.252 304.519l-256.626 256.626v-136.076l256.626-256.626 256.626 256.626v136.076z" />
<glyph unicode="&#xe018;" glyph-name="uniE018" d="M445.214 364.794l-256.626-256.626h136.076l256.626 256.626-256.626 256.626h-136.076zM701.84 364.794l-256.626-256.626h136.076l256.626 256.626-256.626 256.626h-136.076z" />
<glyph unicode="&#xe019;" glyph-name="uniE019" d="M581.29 364.794l256.626 256.626h-136.076l-256.626-256.626 256.626-256.626h136.076zM324.664 364.794l256.626 256.626h-136.076l-256.626-256.626 256.626-256.626h136.076z" />
<glyph unicode="&#xe01a;" glyph-name="uniE01A" d="M443.001 94.246l-378.845 270.548 378.845 270.612v-162.412l455.191-0.064v-216.271h-455.191z" />
<glyph unicode="&#xe01b;" glyph-name="uniE01B" d="M583.503 94.246l378.845 270.548-378.845 270.612v-162.412l-455.191-0.064v-216.271h455.191z" />
<glyph unicode="&#xe01c;" glyph-name="uniE01C" d="M783.832 435.077l-270.58 378.813-270.58-378.813h162.412l0.032-455.223h216.303v455.223z" />
<glyph unicode="&#xe01d;" glyph-name="uniE01D" d="M242.672 294.574l270.58-378.877 270.58 378.877h-162.412l-0.032 455.158h-216.303v-455.158z" />
<glyph unicode="&#xe01e;" glyph-name="uniE01E" d="M730.326 658.502v-96.235h-96.235v96.235h-104.799v51.967l108.265 52.704-140.342 68.327v-172.998h-105.313v-96.235h-96.235v96.235h-167.352v-192.47h96.235v-486.178h198.212v222.206c2.309 74.326 41.766 133.67 90.492 133.67s88.183-59.345 90.492-133.67v-222.206h198.212v486.178h96.235v192.47h-167.866z" />
<glyph unicode="&#xe01f;" glyph-name="uniE01F" d="M697.542 264.133c-1.475-12.222-16.905-12.158-24.54-6.737-8.918 6.383-12.51 17.226-12.158 27.844 0.834 25.598 26.111 44.332 49.946 46.577 50.331 4.684 88.889-42.729 87.381-90.46-1.637-51.613-39.521-93.347-88.375-106.468-50.299-13.505-103.196 5.165-138.065 42.761-15.43 16.616-26.209 37.146-37.884 56.49-15.301 25.342-30.571 50.716-45.904 76.089-7.796 12.96-10.745 25.63-25.663 28.806-22.679 4.876-45.294 10.393-68.102 14.723-50.299 10.779-106.404-11.58-128.667-59.633-19.439-42.311-3.914-103.966 46.128-115.834 22.231-5.229 48.856 1.925 58.896 24.188 4.042 9.014 4.554 20.562-1.733 28.742-2.727 3.56-7.282 6.769-11.902 7.089-2.759 0.256-8.918-5.004-10.393-4.458-7.956 5.935-3.914 17.29 2.663 22.263 8.276 6.351 19.696 5.743 28.742 1.701 23.962-10.681 30.763-40.996 22.615-64.125-16.424-48.598-78.27-60.788-119.684-38.109-46.128 25.182-65.28 80.035-53.058 129.693 12.702 51.549 55.848 89.081 106.724 100.789 22.167 5.068 45.23 4.202 67.845 4.652 29.64 0.578 59.249 1.123 88.889 1.701 15.173 0.32 27.555-3.464 37.82 7.796 15.558 17.162 31.565 34.067 46.739 51.549 34.389 37.948 43.465 98.096 12.798 141.113-28.1 39.585-93.444 56.425-127.19 13.665-14.147-17.997-18.413-45.808-0.866-63.259 6.607-6.543 17.29-10.779 26.401-7.186 8.95 3.594 6.607 17.354 12.542 17.547 27.459 0.834 9.014-36.28-3.658-43.081-22.455-12.062-51.485 0.546-65.248 19.985-30.603 43.337-5.357 102.394 39.745 123.534 48.31 22.551 103.966 6.127 138.129-33.168 34.645-39.905 39.969-97.325 20.978-145.443-18.093-45.936-47.829-89.145-71.631-132.258-3.786-6.865-7.57-13.729-11.356-20.594-2.245-4.106 2.469-12.094 3.754-16.2 7.764-24.252 13.923-50.074 24.38-73.364 20.594-45.84 71.117-78.912 122.186-67.493 45.84 10.201 85.842 59.697 62.072 106.82-9.527 18.861-30.411 32.88-52.063 27.138-15.814-4.234-29.544-27.138-9.239-35.383zM346.445 45.551c90.364-49.689 200.906-56.137 296.499-17.675 42.279 17.002 81.094 42.375 113.685 74.261 33.618 32.944 66.081 74.228 73.202 121.993 7.7 51.549-17.483 106.948-65.376 130.077-43.401 20.914-99.924 9.945-125.073-33.2-11.42-19.568-13.441-44.686-3.112-65.12 10.553-20.882 39.007-38.333 61.142-22.839 7.538 5.293 13.377 15.141 9.142 24.444-3.336 6.511-14.019 4.812-5.421 13.409 21.204 21.268 36.024-23.994 30.859-38.943-18.317-53.090-89.627-39.713-116.957-3.4-30.603 40.9-19.76 98.288 14.435 133.061 37.564 38.269 96.107 44.91 144.352 24.732 48.213-20.178 80.131-67.365 88.729-117.855 16.296-95.786-61.878-184.002-135.658-233.882-78.752-53.186-176.398-75.32-270.388-61.078-64.605 9.785-126.26 36.41-177.746 76.635 22.039-5.549 45.102-7.089 67.685-4.62zM332.94 647.306c-79.523-48.374-137.327-128.248-158.242-218.967-11.259-48.792-11.772-99.989-1.541-149.036 10.553-50.555 31.115-106.852 72.657-139.99 39.489-31.533 96.812-37.628 140.695-11.356 43.017 25.759 63.995 82.762 38.365 127.832-11.163 19.632-31.982 34.067-54.822 35.317-23.097 1.219-53.122-14.531-50.395-41.606 0.866-8.95 6.639-19.375 16.712-20.050 7.25-0.642 11.131 9.849 14.275-2.021 7.666-28.742-38.815-19.664-49.144-7.378-35.895 42.569 9.719 97.742 55.463 103.036 51.775 6.287 96.299-33.168 108.681-81.318 13.12-50.941-10.393-103.998-51.357-135.082-41.67-31.629-98.288-35.735-146.373-17.867-101.335 37.692-136.879 169.534-135.498 267.052 1.283 88.793 34.259 175.661 92.161 242.96 39.456 45.936 89.852 82.088 146.020 104.767-15.718-16.392-28.518-35.543-37.66-56.297-103.741-63.067 4.298 9.753 0 0zM860.788 358.057c-3.914 172.581-139.252 319.884-311.031 337.785-50.587 5.293-100.405-3.914-135.402-43.787-33.362-37.981-41.316-96.78-11.227-139.22 28.068-39.231 93.54-56.522 127.062-13.601 14.211 18.221 18.317 45.616 0.898 63.355-6.543 6.639-17.29 10.713-26.369 7.153-8.982-3.528-6.673-17.483-12.574-17.611-27.299-0.61-9.239 36.248 3.626 43.049 22.679 11.966 51.229-0.32 65.216-19.856 31.019-43.305 5.133-102.33-39.745-123.534-48.149-22.711-104.030-6.031-138.129 33.104-34.677 39.937-39.937 97.293-20.914 145.443 18.958 48.021 62.713 82.538 111.985 95.272 43.049 11.099 90.556 5.004 133.157-5.775 80.805-20.434 153.527-68.102 205.108-133.509 64.253-81.447 92.033-186.471 78.142-289.089-6.383 21.813-16.264 42.569-29.801 60.82-4.298 188.941 6.383-8.628 0 0z" />
<glyph unicode="&#xe020;" glyph-name="uniE020" d="M513.252 735.329c-212.583 0-384.94-172.324-384.94-384.908s172.356-384.908 384.94-384.908 384.94 172.324 384.94 384.908-172.356 384.908-384.94 384.908zM186.855 355.042c1.091 76.089 29.352 150.543 78.976 208.251 33.842 39.391 77.020 70.316 125.169 89.82-13.537-14.051-24.476-30.443-32.336-48.246-68.167-41.444-117.695-109.932-135.626-187.721-9.655-41.83-10.073-85.714-1.315-127.704 9.046-43.337 26.657-91.615 62.264-120.004 33.875-27.073 82.954-32.238 120.583-9.753 36.858 22.071 54.855 70.957 32.88 109.547-9.559 16.84-27.395 29.224-46.995 30.251-19.792 1.059-45.55-12.478-43.209-35.639 0.738-7.634 5.711-16.584 14.307-17.162 6.191-0.578 9.527 8.404 12.254-1.765 6.575-24.636-33.264-16.808-42.119-6.287-30.763 36.506 8.34 83.789 47.539 88.311 44.396 5.389 82.538-28.454 93.123-69.738 11.259-43.627-8.886-89.113-44.011-115.738-35.703-27.138-84.237-30.635-125.425-15.333-86.804 32.336-117.245 145.347-116.059 228.911zM577.89 558.194c-24.092 33.971-80.099 48.374-109.001 11.708-12.126-15.398-15.782-39.263-0.738-54.18 5.679-5.647 14.819-9.271 22.647-6.127 7.666 3.080 5.679 14.852 10.745 15.013 23.513 0.706 7.7-31.115-3.176-36.922-19.247-10.329-44.14 0.48-55.913 17.162-26.209 37.146-4.62 87.767 34.099 105.858 41.38 19.375 89.081 5.261 118.369-28.422 29.704-34.195 34.227-83.468 17.997-124.689-15.526-39.391-40.996-76.411-61.398-113.333-3.272-5.935-6.511-11.772-9.785-17.675-1.925-3.496 2.117-10.361 3.24-13.891 6.673-20.786 11.934-42.921 20.882-62.905 17.643-39.263 60.949-67.621 104.735-57.836 39.295 8.758 73.588 51.165 53.186 91.551-8.18 16.168-26.079 28.198-44.654 23.257-13.537-3.626-25.278-23.257-7.892-30.315-1.251-10.457-14.467-10.393-21.011-5.775-7.634 5.453-10.713 14.787-10.393 23.866 0.706 21.941 22.391 38.013 42.793 39.905 43.145 4.042 76.217-36.602 74.903-77.534-1.411-44.268-33.907-79.971-75.737-91.262-43.145-11.58-88.471 4.458-118.337 36.666-13.216 14.211-22.455 31.854-32.464 48.406-13.088 21.749-26.209 43.465-39.359 65.216-6.673 11.131-9.206 21.973-22.005 24.732-19.407 4.202-38.815 8.886-58.35 12.638-43.145 9.239-91.23-9.945-110.286-51.165-16.712-36.28-3.336-89.081 39.521-99.25 19.087-4.522 41.894 1.637 50.491 20.69 3.432 7.732 3.882 17.611-1.475 24.668-2.341 3.080-6.223 5.839-10.201 6.063-2.373 0.224-7.634-4.298-8.918-3.786-6.801 5.068-3.336 14.787 2.277 19.087 7.089 5.453 16.872 4.908 24.668 1.443 20.562-9.142 26.369-35.157 19.375-54.983-14.051-41.606-67.108-52.063-102.586-32.656-39.553 21.557-55.977 68.615-45.486 111.151 10.875 44.204 47.861 76.379 91.487 86.354 19.023 4.362 38.783 3.626 58.158 3.978 25.374 0.514 50.749 0.962 76.153 1.443 12.992 0.288 23.61-2.951 32.432 6.705 13.345 14.723 27.073 29.191 40.034 44.204 29.48 32.496 37.242 84.045 10.971 120.935zM696.354 79.715c-67.493-45.583-151.218-64.541-231.765-52.352-55.367 8.372-108.201 31.211-152.34 65.664 18.893-4.716 38.655-6.063 58.030-3.914 77.47-42.601 172.164-48.117 254.124-15.173 36.28 14.595 69.546 36.344 97.453 63.643 28.806 28.262 56.65 63.611 62.745 104.575 6.607 44.204-14.981 91.647-56.041 111.472-37.178 17.965-85.65 8.532-107.206-28.454-9.817-16.776-11.516-38.269-2.663-55.816 9.046-17.899 33.426-32.848 52.416-19.536 6.479 4.522 11.452 12.928 7.828 20.914-2.855 5.581-11.998 4.138-4.652 11.484 18.157 18.189 30.891-20.594 26.433-33.394-15.686-45.486-76.827-34.067-100.245-2.919-26.241 35.061-16.938 84.237 12.382 114.102 32.206 32.752 82.376 38.463 123.726 21.172 41.316-17.29 68.679-57.74 76.025-100.983 14.019-82.088-52.994-157.729-116.252-200.49zM811.13 356.967c-3.336 147.912-119.363 274.173-266.634 289.538-43.369 4.554-86.066-3.336-116.027-37.532-28.614-32.56-35.415-82.986-9.623-119.331 24.058-33.65 80.195-48.438 108.937-11.676 12.19 15.622 15.686 39.103 0.77 54.276-5.647 5.711-14.852 9.206-22.615 6.127-7.7-3.047-5.743-14.981-10.779-15.109-23.385-0.514-7.924 31.083 3.144 36.89 19.407 10.265 43.883-0.288 55.881-17.034 26.593-37.082 4.426-87.703-34.099-105.89-41.252-19.439-89.145-5.165-118.369 28.422-29.704 34.227-34.195 83.435-17.932 124.657 16.232 41.156 53.763 70.732 95.979 81.672 36.89 9.527 77.63 4.298 114.166-4.908 69.226-17.515 131.585-58.382 175.757-114.456 55.079-69.802 78.912-159.814 66.979-247.805-5.453 18.701-13.955 36.506-25.534 52.159z" />
<glyph unicode="&#xe021;" glyph-name="uniE021" d="M895.239 652.375c-11.099 12.638-27.138 19.856-43.979 19.856h-113.91c1.765 24.86 2.951 50.299 2.951 76.763 0 0.256-0.064 0.514-0.064 0.738h-453.971c0-0.256 0-0.514 0-0.738 0-26.433 1.187-51.871 2.951-76.763h-113.91c-16.84 0-32.88-7.25-44.043-19.856s-16.296-29.416-14.243-46.128c21.108-168.41 157.055-299.996 328.128-328.032-3.336-8.372-5.261-17.418-5.261-26.977 0-23.93 19.407-38.463 29.384-58.382 9.719-19.536 9.591-67.717 0-87.349-16.84-34.291-120.999-93.572-120.999-93.572h329.989c0 0-104.127 59.281-120.967 93.604-9.591 19.6-9.719 67.781 0 87.349 9.913 19.92 29.384 34.453 29.384 58.382 0 9.559-2.021 18.605-5.261 26.977 171.041 28.036 306.99 159.622 328.064 328.032 2.117 16.68-3.080 33.49-14.243 46.096zM175.307 613.528h119.716c14.211-108.649 45.422-197.57 87.028-257.363-110.958 43.659-192.149 140.856-206.745 257.363zM644.516 356.132c41.606 59.793 72.753 148.746 87.028 257.363h119.716c-14.595-116.477-95.851-213.673-206.745-257.363zM288.705-20.145h449.096v-64.157h-449.096v64.157z" />
<glyph unicode="&#xe022;" glyph-name="uniE022" d="M512.194 749.732c-212.583-0.578-384.457-173.415-383.881-385.998 0.642-212.615 173.415-384.489 385.998-383.881 212.647 0.61 384.457 173.415 383.881 385.998-0.578 212.615-173.415 384.489-385.998 383.881zM510.558 300.637h-96.235v-96.235h-64.157v96.235h-96.235v64.157h96.235v96.235h64.157v-96.235h96.235v-64.157zM718.007 173.254h-90.846v232.279c0 9.271-0.994 16.905-2.951 23.065s-5.133 10.329-9.591 12.766c-4.458 2.373-11.516 4.010-21.044 4.876l-24.188 0.93h-10.713v43.369c24.188 6.255 43.915 14.403 59.345 24.38 15.301 10.041 32.72 23.802 52.127 41.412h47.861v-383.079z" />
<glyph unicode="&#xe023;" glyph-name="uniE023" d="M513.252 749.732c-212.615 0-384.94-172.356-384.94-384.94s172.324-384.94 384.94-384.94 384.94 172.356 384.94 384.94-172.324 384.94-384.94 384.94zM513.252 76.090c-159.462 0-288.705 129.243-288.705 288.705s129.243 288.705 288.705 288.705 288.705-129.243 288.705-288.705-129.243-288.705-288.705-288.705zM609.487 492.529c0-53.149-43.086-96.235-96.235-96.235s-96.235 43.086-96.235 96.235c0 53.149 43.086 96.235 96.235 96.235s96.235-43.086 96.235-96.235zM494.102 269.842c0-53.149-43.086-96.235-96.235-96.235s-96.235 43.086-96.235 96.235c0 53.149 43.086 96.235 96.235 96.235s96.235-43.086 96.235-96.235zM724.872 265.896c0-53.149-43.086-96.235-96.235-96.235s-96.235 43.086-96.235 96.235c0 53.149 43.086 96.235 96.235 96.235s96.235-43.086 96.235-96.235z" />
<glyph unicode="&#xe024;" glyph-name="uniE024" d="M160.391 717.655v-705.722h705.722v705.722h-705.722zM256.626 112.499v508.922h508.954l-508.954-508.922z" />
<glyph unicode="&#xe025;" glyph-name="uniE025" d="M839.808 636.177c-14.083-1.701-28.454-2.855-42.985-2.855-113.461 0-213.77 53.57-278.984 136.268l-4.586 5.647-4.652-5.647c-65.152-82.698-165.46-136.268-278.92-136.268-14.595 0-28.87 1.155-42.985 2.855-12.96-52.512-20.37-108.617-20.37-167.223 0-271.478 150.799-493.042 342.275-514.6h9.206c191.539 21.557 342.339 243.12 342.339 514.6 0 58.607-7.442 114.712-20.338 167.223zM634.187 302.946l17.867-151.698-138.803 63.867-138.771-63.867 17.932 151.698-103.709 112.243 149.869 29.897 74.678 133.253 74.742-133.253 149.805-29.897-103.612-112.243z" />
<glyph unicode="&#xe026;" glyph-name="uniE026" d="M193.111 325.883l0.096-0.128 319.98 319.98 319.98-319.98 0.224 0.192v135.658l-320.205 320.205-320.077-320.109zM193.111 12.062l0.096-0.128 319.98 319.98 319.98-319.98 0.224 0.224v135.594l-320.205 320.237-320.077-320.109z" />
<glyph unicode="&#xe027;" glyph-name="uniE027" d="M316.95 775.386l35.649-35.71-214.417-214.055-35.649 35.71 214.417 214.055zM388.27 704.074l35.702-35.702-80.387-80.387-35.702 35.702 80.387 80.387zM459.597 632.695l35.763-35.642-80.25-80.524-35.763 35.642 80.25 80.524zM531.105 561.217l35.702-35.702-80.318-80.318-35.702 35.702 80.318 80.318zM602.531 489.814l35.702-35.702-214.236-214.236-35.702 35.702 214.236 214.236zM674.018 418.341l35.649-35.71-80.387-80.25-35.649 35.71 80.387 80.25zM745.368 346.959l35.702-35.702-80.341-80.341-35.702 35.702 80.341 80.341zM816.794 275.591l35.702-35.702-80.387-80.387-35.702 35.702 80.387 80.387zM888.229 204.1l35.702-35.702-214.281-214.281-35.702 35.702 214.281 214.281zM598.709 231.83l-149.004-148.939-35.35 35.35 90.332 90.332c3.56 3.56 6.191 6.897 7.828 10.073 1.637 3.080 2.021 6.031 1.187 8.66-0.802 2.695-2.823 6.031-6.191 10.073l-9.078 9.785-4.138 4.202 16.84 16.84c11.838-6.961 22.679-11.516 32.528-13.537 9.849-2.117 22.005-3.496 36.41-4.202l18.637-18.637z" />
<glyph unicode="&#xe028;" glyph-name="uniE028" d="M705.722 412.911h-144.352v144.352h-96.235v-144.352h-144.352v-96.235h144.352v-144.352h96.235v144.352h144.352zM513.252 749.732c-212.615 0-384.94-172.356-384.94-384.94s172.324-384.94 384.94-384.94 384.94 172.356 384.94 384.94-172.324 384.94-384.94 384.94zM513.252 76.090c-159.462 0-288.705 129.243-288.705 288.705s129.243 288.705 288.705 288.705 288.705-129.243 288.705-288.705-129.243-288.705-288.705-288.705z" />
<glyph unicode="&#xe029;" glyph-name="uniE029" d="M513.252 749.732c-212.615 0-384.94-172.356-384.94-384.94s172.324-384.94 384.94-384.94 384.94 172.356 384.94 384.94-172.324 384.94-384.94 384.94zM705.722 316.677h-144.352v-144.352h-96.235v144.352h-144.352v96.235h144.352v144.352h96.235v-144.352h144.352v-96.235z" />
<glyph unicode="&#xe02a;" glyph-name="uniE02A" d="M320.782 412.911h384.94v-96.235h-384.94v96.235zM513.252 749.732c-212.615 0-384.94-172.356-384.94-384.94s172.324-384.94 384.94-384.94 384.94 172.356 384.94 384.94-172.324 384.94-384.94 384.94zM513.252 76.090c-159.462 0-288.705 129.243-288.705 288.705s129.243 288.705 288.705 288.705 288.705-129.243 288.705-288.705-129.243-288.705-288.705-288.705z" />
<glyph unicode="&#xe02b;" glyph-name="uniE02B" d="M513.252 749.732c-212.615 0-384.94-172.356-384.94-384.94s172.324-384.94 384.94-384.94 384.94 172.356 384.94 384.94-172.324 384.94-384.94 384.94zM705.722 316.677h-384.94v96.235h384.94v-96.235z" />
<glyph unicode="&#xe02c;" glyph-name="uniE02C" d="M683.395 262.721l-102.106 102.074 102.106 102.074-68.069 68.037-102.074-102.074-102.074 102.074-68.069-68.037 102.106-102.074-102.106-102.074 68.069-68.037 102.074 102.074 102.074-102.074zM785.436 636.977c-150.351 150.351-394.049 150.351-544.4 0s-150.351-394.049 0-544.4 394.049-150.351 544.4 0 150.351 394.081 0 544.4zM309.107 160.68c-112.755 112.723-112.755 295.537 0 408.292s295.569 112.755 408.324 0 112.755-295.569 0-408.292c-112.755-112.787-295.601-112.787-408.324 0z" />
<glyph unicode="&#xe02d;" glyph-name="uniE02D" d="M785.436 636.977c-150.351 150.351-394.049 150.351-544.4 0s-150.351-394.049 0-544.4 394.049-150.351 544.4 0 150.351 394.081 0 544.4zM615.325 194.683l-102.074 102.074-102.074-102.074-68.069 68.037 102.106 102.074-102.106 102.074 68.069 68.037 102.074-102.074 102.074 102.074 68.069-68.037-102.106-102.074 102.106-102.074-68.069-68.037z" />
<glyph unicode="&#xe02e;" glyph-name="uniE02E" d="M513.252 733.886c-212.615 0-384.94-172.356-384.94-384.94s172.324-384.94 384.94-384.94 384.94 172.356 384.94 384.94-172.324 384.94-384.94 384.94zM513.252 60.243c-159.462 0-288.705 129.243-288.705 288.705s129.243 288.705 288.705 288.705 288.705-129.243 288.705-288.705-129.243-288.705-288.705-288.705zM463.691 285.881v19.215c0 16.616 3.528 31.051 10.649 43.369 7.089 12.286 20.050 25.31 38.911 39.167 18.157 12.96 30.121 23.513 35.928 31.629 5.807 8.148 8.692 17.226 8.692 27.267 0 11.259-4.17 19.792-12.478 25.695s-19.888 8.822-34.773 8.822c-25.951 0-55.495-8.5-88.729-25.438l-28.294 56.81c38.559 21.621 79.491 32.464 122.7 32.464 35.639 0 63.963-8.596 84.975-25.695 21.011-17.162 31.501-39.969 31.501-68.551 0-19.023-4.33-35.447-12.96-49.272-8.66-13.859-25.052-29.416-49.272-46.707-16.648-12.286-27.138-21.621-31.533-28.004-4.426-6.415-6.607-14.787-6.607-25.182v-15.558h-68.711zM455.383 197.121c0 14.531 3.882 25.534 11.676 32.944 7.764 7.442 19.119 11.163 34.003 11.163 14.339 0 25.47-3.786 33.33-11.388s11.806-18.509 11.806-32.72c0-13.665-3.978-24.444-11.934-32.304s-19.055-11.806-33.2-11.806c-14.531 0-25.791 3.882-33.746 11.548s-11.934 18.573-11.934 32.56z" />
<glyph unicode="&#xe02f;" glyph-name="uniE02F" d="M513.252 733.886c-212.615 0-384.94-172.356-384.94-384.94s172.324-384.94 384.94-384.94 384.94 172.356 384.94 384.94-172.324 384.94-384.94 384.94zM534.263 164.85c-7.956-7.86-19.055-11.806-33.2-11.806-14.531 0-25.791 3.882-33.746 11.548s-11.934 18.541-11.934 32.56c0 14.531 3.882 25.534 11.676 32.944 7.764 7.442 19.119 11.163 34.003 11.163 14.339 0 25.47-3.786 33.33-11.388s11.806-18.509 11.806-32.72c0-13.665-3.978-24.444-11.934-32.304zM619.88 401.363c-8.66-13.859-25.052-29.416-49.272-46.707-16.648-12.286-27.138-21.621-31.533-28.004-4.426-6.415-6.607-14.787-6.607-25.182v-15.558h-68.776v19.215c0 16.616 3.528 31.051 10.649 43.369 7.089 12.286 20.050 25.31 38.911 39.167 18.157 12.96 30.121 23.513 35.928 31.629 5.807 8.148 8.692 17.226 8.692 27.267 0 11.259-4.17 19.792-12.478 25.695s-19.888 8.822-34.773 8.822c-25.951 0-55.495-8.5-88.729-25.438l-28.294 56.81c38.559 21.621 79.491 32.464 122.7 32.464 35.639 0 63.963-8.596 84.975-25.695 21.011-17.162 31.501-39.969 31.501-68.551 0.096-19.055-4.234-35.511-12.896-49.304z" />
<glyph unicode="&#xe030;" glyph-name="uniE030" d="M513.252 733.886c-212.615 0-384.94-172.356-384.94-384.94s172.324-384.94 384.94-384.94 384.94 172.356 384.94 384.94-172.324 384.94-384.94 384.94zM513.252 60.243c-159.462 0-288.705 129.243-288.705 288.705s129.243 288.705 288.705 288.705 288.705-129.243 288.705-288.705-129.243-288.705-288.705-288.705zM467.829 199.879c0 14.531 3.882 25.502 11.708 32.944 7.764 7.378 19.119 11.163 33.971 11.163 14.339 0 25.502-3.818 33.33-11.42 7.892-7.602 11.838-18.509 11.838-32.688 0-13.697-4.010-24.444-11.966-32.336-7.956-7.86-18.991-11.772-33.2-11.772-14.531 0-25.759 3.818-33.714 11.516s-11.966 18.573-11.966 32.592zM545.459 288.608h-63.355l-13.216 253.483h89.788l-13.216-253.483z" />
<glyph unicode="&#xe031;" glyph-name="uniE031" d="M513.252 733.886c-212.615 0-384.94-172.356-384.94-384.94s172.324-384.94 384.94-384.94 384.94 172.356 384.94 384.94-172.324 384.94-384.94 384.94zM546.709 167.576c-7.956-7.86-18.991-11.772-33.2-11.772-14.531 0-25.759 3.818-33.714 11.516s-11.966 18.541-11.966 32.592c0 14.531 3.882 25.502 11.708 32.944 7.764 7.378 19.119 11.163 33.971 11.163 14.339 0 25.502-3.818 33.33-11.42 7.892-7.602 11.838-18.509 11.838-32.688 0-13.697-4.010-24.444-11.966-32.336zM545.459 288.608h-63.355l-13.216 253.483h89.788l-13.216-253.483z" />
<glyph unicode="&#xe032;" glyph-name="uniE032" d="M513.252 757.656l-449.096-777.866h898.191l-449.096 777.866zM513.252 578.275l293.869-508.954h-587.737l293.869 508.954zM471.102 130.141c0 13.473 3.594 23.642 10.875 30.571 7.218 6.897 17.739 10.361 31.501 10.361 13.345 0 23.674-3.56 30.955-10.617 7.346-7.089 11.003-17.194 11.003-30.315 0-12.702-3.722-22.711-11.131-30.025-7.346-7.314-17.611-10.939-30.827-10.939-13.473 0-23.898 3.56-31.277 10.681-7.378 7.153-11.099 17.226-11.099 30.283zM543.149 212.454h-58.799l-12.254 235.359h83.339l-12.286-235.359z" />
<glyph unicode="&#xe033;" glyph-name="uniE033" d="M512.034 757.688l-449.096-777.898h898.191l-449.096 777.898zM555.403 448.872l-12.286-235.359h-58.799l-12.254 235.359h83.339zM544.304 101.175c-7.346-7.314-17.611-10.939-30.827-10.939-13.473 0-23.898 3.56-31.277 10.681-7.378 7.153-11.131 17.226-11.131 30.251 0 13.473 3.594 23.642 10.875 30.571 7.218 6.897 17.739 10.361 31.501 10.361 13.345 0 23.674-3.56 30.955-10.617 7.346-7.089 11.003-17.194 11.003-30.315 0-12.702-3.722-22.679-11.099-29.993z" />
<glyph unicode="&#xe034;" glyph-name="uniE034" d="M513.252 737.062c-212.615 0-384.94-172.324-384.94-384.94 0-212.583 172.324-384.94 384.94-384.94s384.94 172.356 384.94 384.94c0 212.615-172.324 384.94-384.94 384.94zM513.252 63.419c-159.462 0-288.705 129.243-288.705 288.705s129.243 288.705 288.705 288.705 288.705-129.243 288.705-288.705-129.243-288.705-288.705-288.705zM734.399 363.286l-32.752 100.821-155.452-71.567 20.018 169.919h-105.922l20.018-169.919-155.452 71.567-32.752-100.821 167.834-33.458-116.091-125.683 85.746-62.296 83.661 149.261 83.661-149.261 85.746 62.296-116.091 125.683z" />
<glyph unicode="&#xe035;" glyph-name="uniE035" d="M513.252 737.062c-212.583 0-384.94-172.324-384.94-384.94 0-212.583 172.356-384.94 384.94-384.94 212.647 0 384.94 172.356 384.94 384.94 0 212.615-172.292 384.94-384.94 384.94zM682.658 204.146l-85.714-62.296-83.693 149.261-83.629-149.261-85.778 62.296 116.091 125.683-167.77 33.458 32.72 100.821 155.452-71.535-20.018 169.887h105.954l-20.050-169.919 155.452 71.535 32.752-100.821-167.834-33.458 116.059-125.651z" />
<glyph unicode="&#xe036;" glyph-name="uniE036" d="M730.101 444.604l-68.037 68.037-192.278-192.31-105.281 105.249-68.037-68.069 172.677-172.645zM513.252 749.732c-212.583 0-384.94-172.292-384.94-384.94 0-212.583 172.356-384.94 384.94-384.94 212.647 0 384.94 172.356 384.94 384.94 0 212.647-172.292 384.94-384.94 384.94zM513.252 76.090c-159.462 0-288.705 129.243-288.705 288.705s129.243 288.737 288.705 288.737c159.462-0.032 288.705-129.275 288.705-288.737s-129.243-288.705-288.705-288.705z" />
<glyph unicode="&#xe037;" glyph-name="uniE037" d="M513.252 749.732c-212.583 0-384.94-172.292-384.94-384.94 0-212.583 172.356-384.94 384.94-384.94 212.647 0 384.94 172.356 384.94 384.94 0 212.647-172.292 384.94-384.94 384.94zM296.467 357.512l68.037 68.037 105.249-105.217 192.278 192.31 68.037-68.037-259.706-259.77z" />
<glyph unicode="&#xe038;" glyph-name="uniE038" d="M513.252 737.062c-212.583 0-384.94-172.324-384.94-384.94 0-212.583 172.356-384.94 384.94-384.94 212.647 0 384.94 172.356 384.94 384.94 0 212.615-172.292 384.94-384.94 384.94zM513.252 63.419c-159.462 0-288.705 129.243-288.705 288.705s129.243 288.705 288.705 288.705 288.705-129.243 288.705-288.705-129.243-288.705-288.705-288.705zM465.135 414.9h96.235v-253.483h-96.235v253.483zM561.37 494.807c0-26.575-21.542-48.117-48.117-48.117s-48.117 21.542-48.117 48.117c0 26.575 21.542 48.117 48.117 48.117s48.117-21.542 48.117-48.117z" />
<glyph unicode="&#xe039;" glyph-name="uniE039" d="M513.252 737.062c-212.583 0-384.94-172.324-384.94-384.94 0-212.583 172.356-384.94 384.94-384.94 212.647 0 384.94 172.356 384.94 384.94 0 212.615-172.292 384.94-384.94 384.94zM561.37 161.417h-96.235v253.483h96.235v-253.483zM513.252 446.689c-26.561 0-48.117 21.557-48.117 48.117s21.557 48.117 48.117 48.117 48.117-21.557 48.117-48.117-21.557-48.117-48.117-48.117z" />
<glyph unicode="&#xe03a;" glyph-name="uniE03A" d="M615.291 534.893l68.066-68.027-272.068-272.223-68.066 68.027 272.068 272.223zM513.252 749.732c-212.615 0-384.94-172.356-384.94-385.004 0-212.519 172.324-384.94 384.94-384.94s384.94 172.42 384.94 384.94c0 212.647-172.324 385.004-384.94 385.004zM513.252 76.090c-159.462 0-288.705 129.243-288.705 288.641 0 159.462 129.243 288.705 288.705 288.705s288.705-129.243 288.705-288.705c0.032-159.398-129.243-288.641-288.705-288.641z" />
<glyph unicode="&#xe03b;" glyph-name="uniE03B" d="M513.252 749.732c-212.583 0-384.94-172.356-384.94-385.004 0-212.519 172.356-384.94 384.94-384.94 212.647 0 384.94 172.42 384.94 384.94 0 212.647-172.292 385.004-384.94 385.004zM411.179 194.683l-68.037 68.037 272.153 272.088 68.102-68.037-272.217-272.088z" />
<glyph unicode="&#xe03c;" glyph-name="uniE03C" d="M513.252 730.935c-212.583 0-384.94-172.356-384.94-384.94s172.356-384.94 384.94-384.94c212.647 0 384.94 172.356 384.94 384.94s-172.292 384.94-384.94 384.94zM513.252 57.292c-159.462 0-288.705 129.243-288.705 288.705s129.243 288.705 288.705 288.705 288.705-129.243 288.705-288.705-129.243-288.705-288.705-288.705zM465.135 527.174h96.235v-362.389h-96.235v362.389z" />
<glyph unicode="&#xe03d;" glyph-name="uniE03D" d="M960.295 412.911h-65.408c-21.749 174.057-159.462 311.768-333.518 333.486v65.44h-96.235v-65.408c-174.057-21.749-311.704-159.462-333.486-333.518h-65.44v-96.235h65.408c21.749-174.057 159.462-311.768 333.486-333.486v-65.408h96.235v65.408c174.057 21.749 311.768 159.462 333.486 333.486h65.408v96.235zM561.37 80.42v93.99h-96.235v-93.99c-120.807 20.306-215.951 115.482-236.256 236.256h93.99v96.235h-93.99c20.37 120.807 115.482 215.951 236.256 236.256v-93.99h96.235v93.99c120.807-20.306 215.951-115.482 236.256-236.256h-93.99v-96.235h93.99c-20.306-120.807-115.386-215.951-236.256-236.256zM593.448 364.794c0-44.291-35.904-80.195-80.195-80.195s-80.195 35.904-80.195 80.195c0 44.291 35.904 80.195 80.195 80.195s80.195-35.904 80.195-80.195z" />
<glyph unicode="&#xe03e;" glyph-name="uniE03E" d="M513.252 741.97l131.938-235.327 264.645-52.834-183.071-198.212 31.597-267.982-245.109 112.787-245.109-112.787 31.533 267.982-183.007 198.212 264.581 52.834z" />
<glyph unicode="&#xe03f;" glyph-name="uniE03F" d="M909.836 453.811l-264.645 52.802-131.938 235.359-132.002-235.327-264.581-52.802 183.007-198.244-31.501-267.982 245.077 112.787 245.109-112.787-31.565 267.982 183.039 198.212zM513.252 171.009l-168.026-77.308 21.621 183.712-125.425 135.884 181.37 36.216 90.46 161.322 90.46-161.322 181.37-36.216-125.49-135.884 21.621-183.712-167.962 77.308z" />
<glyph unicode="&#xe040;" glyph-name="uniE040" d="M962.348 543.598c0 134.89-109.323 244.211-244.147 244.211-86.002 0-161.451-44.622-204.948-111.76-43.465 67.173-118.946 111.76-204.948 111.76-134.826 0-244.147-109.323-244.147-244.211 0-41.284 6.673-82.376 28.454-114.296 90.878-132.869 372.974-349.14 420.642-487.654 46.289 139.156 329.765 354.818 420.642 487.686 21.781 31.886 28.454 72.978 28.454 114.263z" />
<glyph unicode="&#xe041;" glyph-name="uniE041" d="M718.2 787.811c-86.002 0-161.451-44.622-204.948-111.76-43.465 67.173-118.946 111.76-204.948 111.76-134.826 0-244.147-109.323-244.147-244.211 0-41.284 6.673-82.376 28.454-114.296 90.878-132.869 372.974-349.14 420.642-487.654 46.289 139.156 329.765 354.818 420.642 487.686 21.781 31.886 28.454 72.978 28.454 114.263 0 134.89-109.323 244.211-244.147 244.211zM880.932 465.488c-33.297-48.696-99.090-113.525-168.764-182.141-72.85-71.727-147.272-145.026-199.27-214.475-51.903 68.84-125.683 141.85-197.89 213.16-69.898 69.161-135.916 134.504-169.469 183.519-11.388 16.712-17.226 43.017-17.226 78.046 0 99.25 80.773 179.992 179.992 179.992 61.174 0 117.663-30.827 151.089-82.441l53.86-83.211 53.86 83.211c33.426 51.613 89.916 82.441 151.089 82.441 99.25 0 179.992-80.773 179.992-179.992 0-35.029-5.839-61.334-17.258-78.11z" />
<glyph unicode="&#xe042;" glyph-name="uniE042" d="M64.157 749.732h96.235v-769.878h-96.235v769.878zM400.337 398.38c-27.138 0-56.94-8.468-89.402-25.438-32.496-16.97-62.584-39.103-90.236-66.466v417.241c51.197 55.207 113.621 82.762 187.337 82.762 34.805 0 66.691-3.496 95.625-10.585 28.87-7.089 66.114-20.242 111.6-39.521 33.81-14.147 63.259-24.7 88.343-31.501 25.052-6.833 49.656-10.265 73.684-10.265 27.619 0 57.836 8.148 90.62 24.316 32.752 16.232 62.937 38.783 90.556 67.589v-416.44c-52.159-55.751-114.648-83.565-187.337-83.565-36.794 0-71.375 4.202-103.612 12.542-32.238 8.404-66.755 20.626-103.612 36.826-38.397 16.232-69.129 27.395-92.129 33.458-23.097 6.031-46.803 9.046-71.439 9.046z" />
<glyph unicode="&#xe043;" glyph-name="uniE043" d="M66.114 749.732h96.235v-769.878h-96.235v769.878zM869.834 738.891c-32.784-16.168-62.969-24.316-90.62-24.316-24.026 0-48.63 3.432-73.716 10.265s-54.501 17.354-88.311 31.501c-45.518 19.311-82.73 32.464-111.632 39.521s-60.788 10.585-95.625 10.585c-73.684 0-136.108-27.555-187.305-82.762v-417.273c27.651 27.395 57.772 49.496 90.236 66.466 32.496 16.97 62.296 25.438 89.466 25.438 24.572 0 48.342-3.015 71.407-9.078 22.967-6.063 53.73-17.226 92.129-33.458 36.858-16.232 71.407-28.454 103.58-36.826 32.271-8.34 66.851-12.542 103.677-12.542 72.657 0 135.146 27.812 187.305 83.565v416.536c-27.619-28.838-57.836-51.389-90.588-67.621zM892.962 416.184c-34.933-30.571-74.358-45.55-119.844-45.55-30.699 0-59.633 3.432-86.034 10.265-28.518 7.442-59.793 18.605-92.931 33.2-42.761 18.061-75.929 30.025-102.394 36.954-28.838 7.634-58.928 11.452-89.434 11.452-35.575 0-73.267-9.591-112.243-28.518v263.812c34.389 30.315 73.010 44.557 119.844 44.557 29.126 0 55.623-2.887 78.752-8.596 25.278-6.127 59.281-18.285 101.079-35.96 37.21-15.59 68.936-26.881 97.101-34.581 31.115-8.468 62.168-12.766 92.353-12.766 35.992 0 74.228 9.335 113.749 27.748v-262.016z" />
<glyph unicode="&#xe044;" glyph-name="uniE044" d="M513.252 749.732c-212.647 0-384.94-172.356-384.94-384.94s172.292-384.94 384.94-384.94c212.583 0 384.94 172.356 384.94 384.94s-172.356 384.94-384.94 384.94zM513.252 76.090c-159.462 0-288.705 129.243-288.705 288.705s129.243 288.705 288.705 288.705 288.705-129.243 288.705-288.705-129.243-288.705-288.705-288.705z" />
<glyph unicode="&#xe045;" glyph-name="uniE045" d="M513.252 749.732c-212.647 0-384.94-172.356-384.94-384.94s172.292-384.94 384.94-384.94c212.583 0 384.94 172.356 384.94 384.94s-172.356 384.94-384.94 384.94z" />
<glyph unicode="&#xe046;" glyph-name="uniE046" d="M513.252 749.732c-212.647 0-384.94-172.356-384.94-384.94s172.292-384.94 384.94-384.94c212.583 0 384.94 172.356 384.94 384.94s-172.356 384.94-384.94 384.94zM513.252 76.090c-159.462 0-288.705 129.243-288.705 288.705s129.243 288.705 288.705 288.705v-577.408z" />
<glyph unicode="&#xe047;" glyph-name="uniE047" d="M513.252-20.145c212.647 0 384.94 172.356 384.94 384.94s-172.292 384.94-384.94 384.94c-212.583 0-384.94-172.356-384.94-384.94s172.356-384.94 384.94-384.94zM513.252 653.497c159.462 0 288.705-129.243 288.705-288.705s-129.243-288.705-288.705-288.705v577.408z" />
<glyph unicode="&#xe048;" glyph-name="uniE048" d="M932.644 539.236c-35.447 0-64.157-28.742-64.157-64.157 0-12.094 3.496-23.321 9.335-32.944l-249.986-193.784-85.585 351.995c38.911 12.382 67.237 48.374 67.237 91.262 0 53.154-43.113 96.235-96.235 96.235-53.186 0-96.235-43.081-96.235-96.235 0-42.921 28.326-78.88 67.173-91.294l-85.521-351.963-249.986 193.784c5.839 9.655 9.335 20.818 9.335 32.944 0 35.415-28.71 64.157-64.157 64.157-35.415 0-64.157-28.742-64.157-64.157 0-35.447 28.742-64.157 64.157-64.157 1.507 0 2.951 0.32 4.394 0.448 0 0 118.914-250.788 120.935-341.344 1.059-50.266-58.767-128.313-58.767-128.313h705.722c0 0-59.889 78.046-58.767 128.313 1.957 90.524 120.871 341.344 120.871 341.344 1.507-0.128 2.951-0.448 4.458-0.448 35.447 0 64.157 28.71 64.157 64.157-0.064 35.415-28.742 64.157-64.221 64.157z" />
<glyph unicode="&#xe049;" glyph-name="uniE049" d="M641.566 140.246v320.782h-256.626v-192.47h-256.626v-320.782h769.878v192.47zM554.216 799.775v-274.59h-65.12v166.454c0 6.639-0.674 12.158-2.085 16.552-1.379 4.394-3.658 7.41-6.897 9.142-3.208 1.701-8.244 2.887-15.077 3.496l-17.322 0.674h-7.7v31.115c17.322 4.49 31.469 10.297 42.504 17.483 11.003 7.186 23.449 17.034 37.37 29.672h34.324z" />
<glyph unicode="&#xe04a;" glyph-name="uniE04A" d="M128.313 749.732h192.47v-192.47h-192.47v192.47zM417.017 749.732h192.47v-192.47h-192.47v192.47zM705.722 749.732h192.47v-192.47h-192.47v192.47zM128.313 461.028h192.47v-192.47h-192.47v192.47zM417.017 461.028h192.47v-192.47h-192.47v192.47zM705.722 461.028h192.47v-192.47h-192.47v192.47zM128.313 172.325h192.47v-192.47h-192.47v192.47zM417.017 172.325h192.47v-192.47h-192.47v192.47zM705.722 172.325h192.47v-192.47h-192.47v192.47z" />
<glyph unicode="&#xe04b;" glyph-name="uniE04B" d="M128.313 749.732h128.313v-128.313h-128.313v128.313zM352.861 749.732h545.331v-128.313h-545.331v128.313zM128.313 428.95h128.313v-128.313h-128.313v128.313zM352.861 428.95h545.331v-128.313h-545.331v128.313zM128.313 108.168h128.313v-128.313h-128.313v128.313zM352.861 108.168h545.331v-128.313h-545.331v128.313z" />
<glyph unicode="&#xe04c;" glyph-name="uniE04C" d="M444.413 23.032l128.313-127.511v505.809l348.21 348.402h-824.7l348.178-348.402z" />
<glyph unicode="&#xe04d;" glyph-name="uniE04D" d="M449.096 365.115h513.252v-384.94h-96.235v-112.275l-112.275 112.275h-304.744zM352.861 461.35h481.173v224.547h-769.878v-513.252h96.235v-144.352l112.275 144.352h80.195z" />
<glyph unicode="&#xe04e;" glyph-name="uniE04E" d="M898.191 124.142v513.252h-769.878v-513.252h96.235v-208.509l176.43 208.509z" />
<glyph unicode="&#xe04f;" glyph-name="uniE04F" d="M801.956 717.655h-577.408c-35.415 0-64.157-28.742-64.157-64.157v-577.408c0-35.415 28.742-64.157 64.157-64.157h577.408c35.447 0 64.157 28.742 64.157 64.157v577.408c0 35.415-28.71 64.157-64.157 64.157zM314.142 60.051c-53.186 0-96.235 43.177-96.235 96.235 0 53.154 43.049 96.235 96.235 96.235 53.058 0 96.235-43.081 96.235-96.235 0-53.058-43.177-96.235-96.235-96.235zM314.142 477.067c-53.186 0-96.235 43.145-96.235 96.235 0 53.186 43.049 96.235 96.235 96.235 53.058 0 96.235-43.049 96.235-96.235 0-53.090-43.177-96.235-96.235-96.235zM513.252 268.56c-53.122 0-96.235 43.145-96.235 96.235 0 53.186 43.113 96.235 96.235 96.235 53.186 0 96.235-43.049 96.235-96.235 0-53.090-43.049-96.235-96.235-96.235zM712.426 60.051c-53.122 0-96.235 43.145-96.235 96.235 0 53.186 43.113 96.235 96.235 96.235 53.186 0 96.235-43.049 96.235-96.235 0-53.090-43.049-96.235-96.235-96.235zM712.426 477.067c-53.122 0-96.235 43.145-96.235 96.235 0 53.186 43.113 96.235 96.235 96.235 53.186 0 96.235-43.049 96.235-96.235 0-53.090-43.049-96.235-96.235-96.235z" />
<glyph unicode="&#xe050;" glyph-name="uniE050" d="M513.252 734.143c-212.647 0-384.94-172.324-384.94-384.94 0-212.583 172.292-384.94 384.94-384.94 212.583 0 384.94 172.356 384.94 384.94 0 212.615-172.356 384.94-384.94 384.94zM628.22 86.066c-101.752-43.979-200.104-29.993-291.656 33.040-17.098 11.806-22.807 23.161-10.393 41.862 11.516 17.322 3.946 28.036-10.907 42.343-43.241 41.574-97.871 77.694-90.108 150.639 2.823 26.177 7.506 50.138 33.33 64.285 15.045 8.276 18.733 19.985 12.414 37.468-5.453 15.077-14.917 33.136-1.059 47.893 7.892 8.5 16.36 56.49 33.136 3.978 1.507-4.652 4.684-6.865 9.785-5.743 9.655 2.149 35.511 49.080 29.576 56.458-14.051 17.322-4.652 24.828 9.527 34.677 81.576 56.586 220.924 60.403 304.936 7.634 7.346-4.62 16.168-9.174 13.601-18.797-2.245-8.692-12.222-6.929-19.311-7.025-32.816-0.352-65.664-0.578-98.544 0.032-14.403 0.288-27.683-0.706-36.762-13.537-4.202-5.935-17.354-7.186-14.147-14.243 2.501-5.743 13.793-8.5 21.685-10.713 11.227-3.144 14.723 3.336 15.237 13.891 0.256 6.031 4.010 15.686 9.399 13.891 8.212-2.759 15.398-10.201 21.685-16.97 6.897-7.538-2.631-10.169-6.063-14.499-12.766-16.232-28.742-22.999-49.946-21.14-26.079 2.309-52.769-25.438-48.438-47.765 1.701-9.014 1.573-15.558 15.301-11.676 26.817 7.57 54.693 26.079 79.619-7.796 7.346-10.009 16.104 4.362 19.985 12.51 8.95 19.087 22.999 19.696 39.167 11.452 7.828-3.946 20.178-5.325 17.997-18.349-2.245-13.761-14.051-9.849-22.935-10.265-8.276-0.384-19.183 2.887-22.071-7.153-2.951-10.297 8.596-9.463 14.723-12.318 7.956-3.658 10.713-11.324 9.335-18.445-1.765-9.174-11.644-9.753-18.157-8.276-30.443 6.801-67.173-11.998-90.782 25.084-7.892 12.382-26.497 4.49-39.039 0.834-32.88-9.559-52.994-33.522-62.584-65.408-7.7-25.63-0.642-47.925 21.236-64.958 10.457-8.116 21.492-12.222 34.901-12.864 46.353-2.277 61.142-17.643 62.104-64.413 0.32-16.072 1.123-31.629 8.596-46.321 10.971-21.749 33.458-28.068 48.053-9.817 20.978 26.305 55.335 44.46 54.020 86.002-0.448 14.115 13.409 22.487 24.636 31.179 10.907 8.468 19.92 19.119-3.432 25.887-28.068 8.116-26.079 32.432-27.395 55.881 15.462-24.284 31.501-42.985 59.505-17.322 8.758 7.988 20.914 16.584-1.573 23.385-8.95 2.727-14.787 10.745-10.457 19.792 5.133 10.521 12.414 0.706 18.861-0.546 31.211-5.999 55.079-20.050 62.392-53.924 0.994-4.586 5.004-11.388 8.404-11.934 6.319-0.994 6.063 6.993 8.468 11.324 4.522 8.372 9.014 19.6 20.242 15.976 12.35-4.010 6.705-15.846 5.517-24.86-14.371-108.809-72.047-187.305-171.619-230.322z" />
<glyph unicode="&#xe051;" glyph-name="uniE051" d="M762.661 469.562v103.228c0 66.21-24.444 122.732-73.428 170.047-48.984 47.379-107.494 70.989-175.982 70.989-68.615 0-126.998-23.61-175.982-70.989-49.080-47.283-73.556-103.805-73.556-170.047v-103.26h-71.247v-489.771h641.566v489.803h-71.375zM529.291 148.682v-83.147h-32.078v83.147c-18.669 6.607-32.078 24.284-32.078 45.166 0 26.593 21.557 48.117 48.117 48.117s48.117-21.524 48.117-48.117c0-20.882-13.473-38.559-32.078-45.166zM655.84 469.562h-285.143v103.228c0 38.205 13.793 70.508 41.734 97.389 27.844 26.913 61.238 40.354 100.821 40.354 39.521 0 72.914-13.441 100.821-40.354 27.812-26.881 41.798-59.185 41.798-97.389v-103.228z" />
<glyph unicode="&#xe052;" glyph-name="uniE052" d="M529.291 148.682v-83.147h-32.078v83.147c-18.669 6.607-32.078 24.284-32.078 45.166 0 26.593 21.557 48.117 48.117 48.117s48.117-21.524 48.117-48.117c0-20.882-13.473-38.559-32.078-45.166zM689.233 742.837c-48.984 47.379-107.494 70.989-175.982 70.989-68.615 0-126.998-23.61-175.982-70.989-49.080-47.283-73.556-103.805-73.556-170.047v-103.26h-71.247v-489.771h641.566v489.803h-463.306v103.228c0 38.205 13.793 70.508 41.734 97.389 27.812 26.913 61.206 40.354 100.789 40.354 39.521 0 72.914-13.441 100.821-40.354l75.159 72.657z" />
<glyph unicode="&#xe053;" glyph-name="uniE053" d="M884.846-13.826c0 0-23.834-26.881-43.883-24.924-16.712 1.573-33.586 0.32-50.395 0.384-30.667 0.128-41.188 13.409-37.178 43.241 1.507 11.035 0.288 23.994-4.33 33.971-7.314 16.040-22.231 14.531-37.66 11.356-33.586-6.897-52.031 10.713-47.957 44.3 2.181 18.061-16.424 36.344-34.709 34.035-33.168-4.266-59.633 24.444-53.763 57.901 3.176 17.997 10.745 35.285-8.822 51.549-12.864 10.779-23.674 15.718-38.751 10.073-26.015-9.719-46.61-3.432-62.072 19.6-13.345 19.92-41.702 33.008-64.445 26.497-99.989-28.518-206.327 18.991-254.156 110.894-49.786 95.593-25.663 208.638 59.409 278.568 76.827 63.099 194.202 63.099 274.302-0.064 74.261-58.639 103.741-153.174 74.614-243.539-4.522-13.987 10.073-34.389 20.242-44.492 103.228-102.49 309.459-307.566 309.459-307.566l20.722-82.024-347.407 348.274-20.946-20.306 347.728-347.728zM236.289 516.973c27.041-27.491 73.364-27.427 100.085 0 25.919 26.689 25.695 71.375-0.514 98.064-26.593 27.073-70.026 27.748-97.518 1.507-28.582-27.267-29.48-71.695-2.053-99.571z" />
<glyph unicode="&#xe054;" glyph-name="uniE054" d="M513.252-84.301c57.26 0 103.612 46.417 103.612 103.612h-207.225c0-57.196 46.417-103.612 103.612-103.612zM222.11 399.31c0 0-6.063-238.95-48.566-310.87 133.445 0 518.641 0 679.417 0-45.486 63.355-48.502 310.87-48.502 310.87 0 229.007-130.301 414.579-291.206 414.579-160.84 0-291.142-185.572-291.142-414.579z" />
<glyph unicode="&#xe055;" glyph-name="uniE055" d="M753.838 683.138v-673.643h-481.173v673.643h-64.157v-769.878h609.487v769.878zM469.786 178.612l0.61-0.578 227.627 227.595-68.037 68.069-160.198-160.23-73.202 73.202-68.037-68.037 140.599-140.599zM657.604 752.171h-99.186c1.829 5.036 2.951 10.393 2.951 16.040 0 26.561-21.557 48.117-48.117 48.117s-48.117-21.557-48.117-48.117c0-5.647 1.187-11.003 2.951-16.040h-99.186v-96.235h288.705v96.235z" />
<glyph unicode="&#xe056;" glyph-name="uniE056" d="M722.499 540.71c0-115.564-93.682-209.246-209.246-209.246s-209.246 93.682-209.246 209.246c0 115.564 93.682 209.246 209.246 209.246s209.246-93.682 209.246-209.246zM292.393-49.304h441.749c45.808 0 88.6-12.574 125.49-34.067v161.995c0 114.616-73.876 211.813-176.494 247.13-42.857-44.782-103.068-72.753-169.919-72.753s-127.062 27.972-169.919 72.753c-102.618-35.35-176.494-132.515-176.494-247.13v-161.995c36.954 21.492 79.747 34.067 125.587 34.067z" />
<glyph unicode="&#xe057;" glyph-name="uniE057" d="M277.989 809.141h64.157v-128.313h-64.157v128.313zM684.358 809.141h64.157v-128.313h-64.157v128.313zM780.592 744.986v-96.235h-128.313v96.235h-278.055v-96.235h-128.313v96.235h-181.755v-834.034h898.191v834.034h-181.755zM406.303 361.394h213.898v-160.391h-213.898v160.391zM406.303 425.55v160.391h213.898v-160.391h-213.898zM128.313 585.941h213.834v-160.391h-213.834v160.391zM128.313 361.394h213.834v-160.391h-213.834v160.391zM128.313-23.546v160.391h213.834v-160.391h-213.834zM406.303-23.546v160.391h213.898v-160.391h-213.898zM898.191-23.546h-213.834v160.391h213.834v-160.391zM898.191 201.003h-213.834v160.391h213.834v-160.391zM898.191 425.55h-213.834v160.391h213.834v-160.391z" />
<glyph unicode="&#xe058;" glyph-name="uniE058" d="M918.080 6.159l-233.049 233.017c92.674 125.554 82.505 303.108-31.211 416.825-125.265 125.233-328.353 125.233-453.651 0-125.265-125.297-125.265-328.385 0-453.683 113.685-113.717 291.238-123.854 416.793-31.211l233.049-233.049 68.069 68.102zM268.239 270.388c-87.671 87.703-87.671 229.872 0 317.543 87.703 87.671 229.872 87.671 317.543 0 87.703-87.671 87.703-229.84 0-317.543-87.671-87.735-229.808-87.735-317.543 0z" />
<glyph unicode="&#xe059;" glyph-name="uniE059" d="M401.010 193.624h224.547v-96.235h-224.547v96.235zM737.768 439.569h224.547v-96.235h-224.547v96.235zM64.189 562.525h224.547v-96.235h-224.547v96.235zM128.345 744.986h96.235v-150.383h-96.235v150.383zM128.345 434.211h96.235v-459.136h-96.235v459.136zM465.167 744.986h96.235v-519.283h-96.235v519.283zM465.167 65.312h96.235v-90.236h-96.235v90.236zM801.924 744.986h96.235v-273.339h-96.235v273.339zM801.924 311.255h96.235v-336.148h-96.235v336.148z" />
<glyph unicode="&#xe05a;" glyph-name="uniE05A" d="M207.707 688.784l611.091-352.861-611.091-352.861z" />
<glyph unicode="&#xe05b;" glyph-name="uniE05B" d="M856.457 639.961l-68.037 68.102-138.257-138.321-46.193 46.16v-160.391h160.391l-46.16 46.193zM170.047 89.562l68.037-68.037 138.257 138.321 46.193-46.16v160.391h-160.391l46.16-46.193zM577.408 364.794c0-35.433-28.724-64.157-64.157-64.157s-64.157 28.724-64.157 64.157c0 35.433 28.724 64.157 64.157 64.157s64.157-28.724 64.157-64.157z" />
<glyph unicode="&#xe05c;" glyph-name="uniE05C" d="M586.84 506.452c14.243-7.378 27.876-16.296 39.809-28.262 11.966-11.902 20.85-25.566 28.262-39.777l140.985 140.985 46.16-46.16-0.032 160.391h-160.391l46.16-46.16-140.953-141.017zM439.664 223.137c-14.243 7.378-27.876 16.296-39.809 28.262-11.966 11.902-20.85 25.566-28.262 39.777l-140.985-140.985-46.16 46.193 0.032-160.391h160.359l-46.16 46.16 140.985 140.985zM577.408 364.794c0-35.433-28.724-64.157-64.157-64.157s-64.157 28.724-64.157 64.157c0 35.433 28.724 64.157 64.157 64.157s64.157-28.724 64.157-64.157z" />
<glyph unicode="&#xe05d;" glyph-name="uniE05D" d="M586.807 506.484c14.275-7.378 27.876-16.296 39.841-28.262 11.966-11.902 20.85-25.566 28.262-39.777l140.985 140.985 46.16-46.16-0.064 160.391h-160.391l46.16-46.16-140.953-141.017zM439.632 223.105c-14.211 7.378-27.876 16.296-39.777 28.262-11.966 11.902-20.85 25.566-28.262 39.777l-140.985-140.953-46.16 46.16v-160.327h160.391l-46.16 46.128 140.953 140.953zM577.408 364.794c0-35.433-28.724-64.157-64.157-64.157s-64.157 28.724-64.157 64.157c0 35.433 28.724 64.157 64.157 64.157s64.157-28.724 64.157-64.157zM371.595 438.445c7.378 14.211 16.296 27.876 28.262 39.777 11.902 11.966 25.566 20.85 39.777 28.262l-140.953 140.985 46.16 46.16h-160.391v-160.391l46.16 46.16 140.985-140.953zM654.91 291.207c-7.378-14.275-16.296-27.876-28.262-39.841-11.902-11.966-25.566-20.85-39.777-28.262l140.985-140.985-46.16-46.128 160.391 0.064v160.263l-46.16-46.16-141.017 141.049z" />
<glyph unicode="&#xe05e;" glyph-name="uniE05E" d="M577.408 364.794c0-35.433-28.724-64.157-64.157-64.157s-64.157 28.724-64.157 64.157c0 35.433 28.724 64.157 64.157 64.157s64.157-28.724 64.157-64.157zM856.457 639.993l-68.037 68.102-138.257-138.321-46.193 46.16v-160.391h160.391l-46.16 46.193zM170.047 89.53l68.037-67.973 138.257 138.257 46.193-46.16v160.391h-160.391l46.16-46.193zM238.085 708.032l-68.102-68.037 138.321-138.257-46.16-46.193h160.391v160.391l-46.193-46.16zM788.483 21.62l68.037 67.973-138.321 138.257 46.16 46.193h-160.391v-160.391l46.193 46.16z" />
<glyph unicode="&#xe05f;" glyph-name="uniE05F" d="M244.469 364.827c0 51.485 14.787 99.506 39.905 140.534l-252.295-145.731 263.394-152.115c-31.95 44.332-51.005 98.544-51.005 157.312zM514.439 244.789c-66.178 0-119.972 53.828-119.972 120.036 0 66.178 53.828 119.972 119.972 119.972s119.972-53.828 119.972-119.972c0-66.21-53.795-120.036-119.972-120.036zM514.439 94.791c-51.807 0-100.117 14.981-141.273 40.354l145.219-251.494 149.933 259.576c-43.723-30.443-96.683-48.438-153.879-48.438zM994.426 370.023l-259.064 149.549c30.763-43.851 49.048-97.165 49.048-154.745 0-50.619-14.211-97.871-38.527-138.353l248.542 143.55zM514.439 634.796c50.234 0 97.165-14.051 137.519-38.045l-143.903 249.215-151.794-262.785c44.524 32.304 99.090 51.613 158.177 51.613z" />
<glyph unicode="&#xe060;" glyph-name="uniE060" d="M271.798 717.655v-163.246c90.91-15.365 160.391-94.406 160.391-189.582 0-95.24-69.482-174.313-160.391-189.646v-163.214l611.187 352.861-611.187 352.829zM335.956 364.827c0-53.149-43.086-96.235-96.235-96.235s-96.235 43.086-96.235 96.235c0 53.149 43.086 96.235 96.235 96.235s96.235-43.086 96.235-96.235z" />
<glyph unicode="&#xe061;" glyph-name="uniE061" d="M496.219 491.214v137.711l-436.874-252.167 436.874-252.167v136.332c92.963 5.453 356.935 5.133 470.973-160.391-59.409 264.581-368.548 364.506-470.973 390.681z" />
<glyph unicode="&#xe062;" glyph-name="uniE062" d="M530.285 491.214v137.711l436.874-252.167-436.874-252.167v136.332c-92.899 5.453-356.871 5.133-470.973-160.391 59.473 264.581 368.548 364.506 470.973 390.681z" />
<glyph unicode="&#xe063;" glyph-name="uniE063" d="M594.186 572.244c0-115.564-93.682-209.246-209.246-209.246s-209.246 93.682-209.246 209.246c0 115.564 93.682 209.246 209.246 209.246s209.246-93.682 209.246-209.246zM987.978 200.842h-144.352v144.352h-96.235v-144.352h-144.352v-96.235h144.352v-144.352h96.235v144.352h144.352zM683.235 40.451h-144.352v224.547h144.352c-31.405 44.236-76.057 74.228-128.377 92.289-42.857-44.782-103.068-72.753-169.919-72.753s-127.062 27.94-169.919 72.753c-102.618-35.35-176.494-132.515-176.494-247.162v-161.963c36.89 21.492 79.683 34.035 125.554 34.035h441.749c27.138 0 52.962-4.812 77.373-12.896v71.149z" />
<glyph unicode="&#xe064;" glyph-name="uniE064" d="M594.186 572.244c0-115.564-93.682-209.246-209.246-209.246s-209.246 93.682-209.246 209.246c0 115.564 93.682 209.246 209.246 209.246s209.246-93.682 209.246-209.246zM603.039 200.842h384.94v-96.235h-384.94v96.235zM683.235 40.451h-144.352v224.547h144.352c-31.405 44.236-76.057 74.228-128.377 92.289-42.857-44.782-103.068-72.753-169.919-72.753s-127.062 27.94-169.919 72.753c-102.618-35.35-176.494-132.515-176.494-247.162v-161.963c36.89 21.492 79.683 34.035 125.554 34.035h441.749c27.138 0 52.962-4.812 77.373-12.896v71.149z" />
<glyph unicode="&#xe065;" glyph-name="uniE065" d="M686.185 448.678c0-92.214-77.426-166.967-172.934-166.967s-172.934 74.753-172.934 166.967c0 92.214 77.426 166.967 172.934 166.967s172.934-74.753 172.934-166.967zM330.759-22.102h365.083c37.852 0 73.17-10.041 103.677-27.203v129.243c0 91.487-61.014 169.020-145.859 197.185-35.415-35.703-85.135-58.062-140.406-58.062s-104.992 22.327-140.406 58.062c-84.847-28.198-145.859-105.73-145.859-197.185v-129.243c30.507 17.194 65.856 27.203 103.773 27.203zM773.888 778.86c-74.55 0-135.018-58.35-135.018-130.366 0-1.443 0.384-2.759 0.448-4.202 45.358-27.876 80.195-70.412 97.936-120.679 11.708-3.208 23.866-5.453 36.666-5.453 74.55 0 135.018 58.318 135.018 130.334-0.032 72.015-60.499 130.366-135.050 130.366zM387.185 644.067c0.064 1.507 0.448 2.919 0.448 4.426 0 72.015-60.467 130.366-135.018 130.366s-135.018-58.35-135.018-130.366c0-71.983 60.467-130.334 135.018-130.334 12.766 0 24.86 2.245 36.602 5.453 17.707 50.202 52.608 92.545 97.968 120.455zM883.532 514.6c-27.619-27.876-66.466-45.358-109.643-45.358-8.532 0-16.68 1.187-24.732 2.501 0.738-7.57 1.187-15.301 1.187-23.065 0-46.707-14.595-89.98-39.167-126.324 22.359-11.163 42.407-25.374 60.531-41.477h144.737c29.576 0 57.132-7.828 80.997-21.236v100.918c0 71.471-47.701 132.002-113.91 154.039zM276.162 448.678c0 7.764 0.384 15.462 1.187 23.065-8.148-1.315-16.296-2.501-24.732-2.501-43.177 0-82.024 17.483-109.643 45.358-66.21-22.039-113.91-82.57-113.91-154.007v-100.918c23.802 13.409 51.453 21.236 80.997 21.236h144.673c18.157 16.104 38.205 30.315 60.531 41.477-24.54 36.344-39.103 79.587-39.103 126.292z" />
<glyph unicode="&#xe066;" glyph-name="uniE066" d="M609.775 572.18c0-115.564-93.682-209.246-209.246-209.246s-209.246 93.682-209.246 209.246c0 115.564 93.682 209.246 209.246 209.246s209.246-93.682 209.246-209.246zM541.385 16.136l102.074 102.138-102.074 102.074 99.667 99.667c-21.3 15.782-45.038 28.454-70.604 37.274-42.857-44.782-103.068-72.817-169.919-72.817s-127.062 28.004-169.919 72.817c-102.618-35.35-176.494-132.515-176.494-247.162v-162.027c36.89 21.557 79.683 34.099 125.554 34.099h395.653l-33.939 33.939zM972.389 16.136l-102.074 102.106 102.074 102.074-68.069 68.037-102.042-102.042-102.074 102.042-68.102-68.037 102.138-102.074-102.138-102.106 68.102-68.037 102.074 102.106 102.042-102.106z" />
<glyph unicode="&#xe067;" glyph-name="uniE067" d="M676.338 572.18c0-115.564-93.682-209.246-209.246-209.246s-209.246 93.682-209.246 209.246c0 115.564 93.682 209.246 209.246 209.246s209.246-93.682 209.246-209.246zM708.544 319.242c-21.557 16.168-45.616 29.062-71.535 38.045-42.857-44.782-103.068-72.817-169.919-72.817s-127.062 28.004-169.919 72.817c-102.618-35.35-176.494-132.515-176.494-247.162v-162.027c36.89 21.557 79.683 34.099 125.554 34.099h113.461l348.851 337.046zM688.945-17.9c45.422-0.192 87.895-12.606 124.561-34.035v159.75l-124.561-125.715zM773.631 292.939l132.194-0.77-340.896-344.072h-148.17z" />
<glyph unicode="&#xe068;" glyph-name="uniE068" d="M674.382 572.18c0-115.564-93.682-209.246-209.246-209.246s-209.246 93.682-209.246 209.246c0 115.564 93.682 209.246 209.246 209.246s209.246-93.682 209.246-209.246zM789.927 57.1c-8.822 0-17.675 0.642-26.433 1.957-10.585-10.073-23.129-17.29-36.73-21.172-3.432-11.966-9.399-23.257-17.547-32.944-8.276-9.849-18.477-17.29-29.704-22.743h6.511c45.808 0 88.6-12.542 125.49-34.099v110.51c-7.121-0.866-14.243-1.507-21.589-1.507zM442.776 48.663l165.589 164.594c-7.506 50.074 6.191 99.989 37.403 139.348-3.626 1.443-7.025 3.368-10.713 4.684-42.857-44.782-103.068-72.817-169.919-72.817s-127.062 28.004-169.919 72.817c-102.618-35.35-176.494-132.515-176.494-247.162v-162.027c36.89 21.557 79.683 34.099 125.554 34.099h181.691l16.808 66.466zM685.929 146.822l-11.163 10.843-185.188-185.636 11.035 43.659c0 0 109.964 109.323 164.978 163.952 5.453 5.389 13.216 16.296 10.843 23.738-15.526 48.181 0.192 98.544 39.777 129.821 42.665 33.65 105.249 33.714 146.245 0.064 45.294-37.274 58.19-97.55 31.629-148.49-25.502-49.048-82.216-74.358-135.53-59.153-12.094 3.432-27.203-3.496-34.324-14.147-8.212-12.286-19.247-15.59-33.072-10.393-8.020 2.951-13.793 0.32-20.69-5.389-10.393-8.692-6.383-17.932-4.684-27.491 3.144-17.867-10.971-33.136-28.646-30.891-9.785 1.251-19.664-8.532-18.541-18.093 2.181-17.932-7.634-27.331-25.566-23.61-8.212 1.701-16.168 2.501-20.050-6.063-2.437-5.325-3.144-12.222-2.309-18.093 2.117-15.846-3.432-22.999-19.792-22.999-9.014-0.064-17.997 0.578-26.881-0.256-10.713-0.994-23.417 13.345-23.417 13.345l185.348 185.284zM845.198 297.494c-14.659 14.051-37.788 13.665-51.999-0.802-13.923-14.211-14.051-38.045-0.256-52.255 14.275-14.659 38.975-14.659 53.378 0 14.595 14.852 14.147 38.527-1.123 53.058z" />
<glyph unicode="&#xe069;" glyph-name="uniE069" d="M639.127 456.988l23.353 204.852-609.358-609.423 90.718-90.718zM814.916 878.047l52.769-94.054 105.698-21.044-73.17-79.265 12.638-107.013-97.936 45.006-97.904-45.006 12.638 107.013-73.106 79.265 105.633 21.044zM775.331 408.196l34.517-61.558 69.096-13.793-47.861-51.871 8.276-69.994-64.028 29.416-64.093-29.416 8.276 70.026-47.861 51.839 69.161 13.793zM499.586 683.908l-61.526 34.485-13.826 69.194-51.839-47.893-70.026 8.276 29.448-64.060-29.448-64.060 70.026 8.244 51.903-47.829 13.697 69.129z" />
<glyph unicode="&#xe06a;" glyph-name="uniE06A" d="M624.403 614.716c-50.813 0-98.064-15.077-137.711-40.772l-136.911 136.911c2.501 8.596 4.266 17.451 4.266 26.849 0 53.122-43.113 96.235-96.235 96.235-53.186 0-96.235-43.113-96.235-96.235s43.049-96.235 96.235-96.235c7.7 0 15.173 1.155 22.359 2.887l137.007-137.007c-29.384-41.412-46.803-91.905-46.803-146.533 0-48.984 14.147-94.598 38.141-133.381l-142.043-142.107c-7.153 1.701-14.467 2.823-22.103 2.823-53.186 0-96.235-43.113-96.235-96.235s43.049-96.235 96.235-96.235c53.122 0 96.235 43.113 96.235 96.235 0 9.463-1.829 18.445-4.394 27.105l137.583 137.615c42.151-31.147 94.118-49.754 150.543-49.754 140.214 0 253.932 113.653 253.932 253.932 0.064 140.182-113.653 253.9-253.868 253.9z" />
<glyph unicode="&#xe06b;" glyph-name="uniE06B" d="M832.655 497.085c-4.394 10.681-9.335 20.946-14.659 30.923l51.999 109.451c-24.444 32.046-52.769 60.243-84.013 84.109l-109.515-52.031c-20.178 10.779-41.284 19.504-63.227 26.145l-40.548 114.263c-39.039 5.261-78.944 5.293-118.914-0.064l-40.612-114.166c-10.843-3.336-21.557-7.089-32.271-11.452-10.617-4.458-20.882-9.399-30.923-14.723l-109.451 51.999c-32.014-24.476-60.211-52.672-84.077-84.013l51.999-109.515c-10.713-20.146-19.471-41.284-26.079-63.195l-114.328-40.612c-5.261-39.071-5.261-78.912 0.128-118.882l114.102-40.612c3.272-10.843 7.153-21.589 11.516-32.271 4.458-10.649 9.335-20.946 14.659-30.923l-51.999-109.451c24.508-32.046 52.769-60.243 84.013-84.109l109.515 52.095c20.178-10.779 41.284-19.536 63.163-26.177l40.676-114.231c39.039-5.261 78.88-5.261 118.914 0.064l40.548 114.166c10.907 3.336 21.621 7.089 32.336 11.484 10.649 4.426 20.914 9.367 30.891 14.691l109.451-51.999c32.014 24.444 60.275 52.704 84.077 83.981l-52.031 109.547c10.713 20.114 19.471 41.284 26.079 63.163l114.296 40.612c5.325 39.039 5.325 78.944-0.064 118.914l-114.102 40.58c-3.336 10.843-7.153 21.589-11.548 32.238zM624.403 96.459c-148.234-61.366-318.088 8.982-379.486 157.183-61.334 148.17 8.95 318.088 157.183 379.486 148.17 61.334 318.024-8.982 379.357-157.216 61.398-148.17-8.886-318.056-157.055-379.454zM569.324 480.629c-22.679 0-43.659-6.705-61.334-18.157l-60.949 60.981c1.123 3.818 1.957 7.764 1.957 11.966 0 23.642-19.183 42.825-42.857 42.825s-42.857-19.183-42.857-42.825c0-23.706 19.183-42.857 42.857-42.857 3.432 0 6.769 0.514 9.977 1.283l60.949-61.014c-13.024-18.413-20.786-40.836-20.786-65.216 0-21.813 6.319-42.119 16.97-59.409l-63.291-63.259c-3.144 0.77-6.383 1.283-9.785 1.283-23.61 0-42.857-19.215-42.857-42.857s19.247-42.857 42.857-42.857c23.674 0 42.793 19.215 42.793 42.857 0 4.202-0.802 8.212-1.957 12.062l61.27 61.238c18.797-13.859 41.862-22.103 67.043-22.103 62.392 0 113.011 50.619 113.011 113.011s-50.619 113.043-113.011 113.043z" />
<glyph unicode="&#xe06c;" glyph-name="uniE06C" d="M688.56 618.725c-50.813 0-98.064-15.077-137.711-40.772l-136.911 136.911c2.501 8.596 4.266 17.451 4.266 26.849 0 53.122-43.113 96.235-96.235 96.235-53.186 0-96.235-43.113-96.235-96.235s43.049-96.235 96.235-96.235c7.7 0 15.173 1.155 22.359 2.887l137.007-137.007c-29.384-41.412-46.803-91.905-46.803-146.533 0-48.984 14.147-94.598 38.141-133.381l-142.043-142.107c-7.089 1.669-14.435 2.791-22.071 2.791-53.186 0-96.235-43.113-96.235-96.235s43.049-96.235 96.235-96.235c53.122 0 96.235 43.113 96.235 96.235 0 9.463-1.829 18.445-4.394 27.105l137.583 137.615c42.151-31.147 94.118-49.754 150.543-49.754 140.214 0 253.932 113.653 253.932 253.932 0.032 140.214-113.685 253.932-253.9 253.932zM832.912 316.677h-96.235v-96.235h-96.235v96.235h-96.235v96.235h96.235v96.235h96.235v-96.235h96.235v-96.235z" />
<glyph unicode="&#xe06d;" glyph-name="uniE06D" d="M688.56 614.716c-50.813 0-98.064-15.077-137.711-40.772l-136.911 136.911c2.501 8.596 4.266 17.451 4.266 26.849 0 53.122-43.113 96.235-96.235 96.235-53.186 0-96.235-43.113-96.235-96.235s43.049-96.235 96.235-96.235c7.7 0 15.173 1.155 22.359 2.887l137.007-137.007c-29.384-41.412-46.803-91.905-46.803-146.533 0-48.984 14.147-94.598 38.141-133.381l-142.043-142.107c-7.153 1.701-14.467 2.823-22.103 2.823-53.186 0-96.235-43.113-96.235-96.235s43.049-96.235 96.235-96.235c53.122 0 96.235 43.113 96.235 96.235 0 9.463-1.829 18.445-4.394 27.105l137.583 137.615c42.151-31.147 94.118-49.754 150.543-49.754 140.214 0 253.932 113.653 253.932 253.932 0.064 140.182-113.653 253.9-253.868 253.9zM824.636 292.746l-68.037-68.037-68.037 68.037-68.037-68.037-68.102 68.037 68.102 68.037-68.102 68.037 68.102 68.037 68.037-68.037 68.037 68.037 68.037-68.037-68.037-68.037 68.037-68.037z" />
<glyph unicode="&#xe06e;" glyph-name="uniE06E" d="M688.56 614.716c-50.813 0-98.064-15.077-137.711-40.772l-136.911 136.911c2.501 8.596 4.266 17.451 4.266 26.849 0 53.122-43.113 96.235-96.235 96.235-53.186 0-96.235-43.113-96.235-96.235s43.049-96.235 96.235-96.235c7.7 0 15.173 1.155 22.359 2.887l137.007-137.007c-29.384-41.412-46.803-91.905-46.803-146.533 0-48.984 14.147-94.598 38.141-133.381l-142.043-142.107c-7.153 1.701-14.467 2.823-22.103 2.823-53.186 0-96.235-43.113-96.235-96.235s43.049-96.235 96.235-96.235c53.122 0 96.235 43.113 96.235 96.235 0 9.463-1.829 18.445-4.394 27.105l137.583 137.615c42.151-31.147 94.118-49.754 150.543-49.754 140.214 0 253.932 113.653 253.932 253.932 0.064 140.182-113.653 253.9-253.868 253.9zM832.912 312.667h-288.705v96.235h288.705v-96.235z" />
<glyph unicode="&#xe06f;" glyph-name="uniE06F" d="M739.051 629.087c0-55.452-44.953-100.405-100.405-100.405s-100.405 44.953-100.405 100.405c0 55.452 44.953 100.405 100.405 100.405s100.405-44.953 100.405-100.405zM677.845 487.396c-176.944 5.549-143.774 75.32-178.804 79.939 0 0-145.026 84.269-177.232 72.529-14.147-5.133-177.072-211.781-177.072-211.781l54.565-25.47c0 0 126.485 148.009 151.634 157.151 13.537 4.908 48.792-28.678 65.728-45.808-77.308-87.541-167.834-244.308-139.412-322.354 18.861-51.967 129.243-68.583 201.227-92.641 28.582-11.676 84.591-35.285 86.9-41.734 10.907-29.897-53.698-115.289-53.698-115.289l54.565-25.438c0 0 89.274 145.026 79.265 169.855-6.705 16.616-98.93 95.304-150.319 120.807-32.496 171.233 132.901 65.248 182.653 280.236zM915.737 519.86c0 0-72.753-102.17-97.871-111.344-16.040-5.807-61.014 39.649-101.367 62.584-6.705-23.93-20.786-64.349-29.191-83.147 50.074-28.132 131.585-69.738 159.718-59.505 14.147 5.197 123.372 165.973 123.372 165.973l-54.661 25.438zM254.862 134.343c-15.526-42.407-29.384-79.875-44.172-85.264-25.182-9.174-129.115 77.308-129.115 77.308l-25.502-54.565c0 0 137.905-119.524 183.776-102.81 25.118 9.142 90.782 65.022 119.908 118.337-29.64 11.035-86.418 28.004-104.895 46.995z" />
<glyph unicode="&#xe070;" glyph-name="uniE070" d="M401.524 443.867l45.358 45.358-56.714 56.682 56.714 56.714-45.358 45.358-56.714-56.682-56.714 56.682-45.358-45.358 56.714-56.714-56.714-56.682 45.358-45.358 56.714 56.682zM691.158 749.732l-92.609-160.391h45.616v-297.526c0-53.058-43.177-96.235-96.235-96.235h-58.831c-53.058 0-96.235 43.177-96.235 96.235v78.302h-96.235v-78.302c0-99.989 76.249-182.141 173.769-191.539v-120.422h96.235v120.422c97.518 9.399 173.769 91.551 173.769 191.539v297.526h43.369l-92.609 160.391z" />
<glyph unicode="&#xe071;" glyph-name="uniE071" d="M779.181 589.342l-92.609 160.391-92.609-160.391h45.616v-297.526c0-53.058-43.177-96.235-96.235-96.235h-58.831c-53.058 0-96.235 43.177-96.235 96.235v297.526h44.204l-92.609 160.391-92.545-160.391h44.75v-297.526c0-99.989 76.249-182.141 173.769-191.539v-120.422h96.235v120.422c97.518 9.399 173.769 91.551 173.769 191.539v297.526h43.337z" />
<glyph unicode="&#xe072;" glyph-name="uniE072" d="M180.504 146.084c0-12.35 4.266-22.807 13.28-31.822l69.866-69.354c9.014-8.084 19.471-12.35 32.336-12.35 12.798 0 23.738 4.266 32.304 12.832l134.151 134.568c9.014 9.014 13.312 19.471 13.312 32.336 0 13.248-5.261 24.7-15.686 34.645-0.962-0.93-3.786-3.818-8.564-9.014l-10.457-10.457c-1.893-1.443-4.716-3.786-9.014-7.121-8.084-5.679-15.654-7.602-25.182-7.538-25.182-0.064-45.616 20.37-45.616 45.55-1.925 12.798 8.596 27.555 15.205 34.195 1.443 1.893 4.748 5.197 10.009 10.041l9.014 8.982c-9.495 10.009-20.882 15.237-34.195 15.237-12.832-0.032-23.289-4.298-32.304-13.312l-135.114-135.082c-9.078-9.046-13.345-19.504-13.345-32.336v0zM550.783 517.326c0-13.312 5.261-24.732 15.654-34.677l9.014 9.014c4.812 5.197 8.148 8.564 10.041 9.977 1.893 1.925 4.748 4.266 9.014 7.121 8.116 6.159 15.654 8.084 25.182 8.084 25.182 0.032 45.616-20.434 45.616-45.616 1.893-12.798-8.596-27.523-14.723-34.195l-10.457-10.425c-5.229-4.748-8.084-7.634-9.014-8.596 9.495-9.977 20.914-14.691 34.195-14.691 12.798 0 23.738 4.266 32.304 12.798l135.082 135.082c9.046 9.014 13.312 19.471 13.312 32.336 0 12.35-4.266 22.807-13.312 31.822l-69.834 69.354c-9.046 8.564-19.985 12.832-32.336 12.832-12.832 0-23.289-4.298-32.304-13.312l-134.183-134.6c-8.918-9.046-13.248-19.504-13.248-32.304v0zM89.274 146.084c0 38.045 13.28 70.348 39.905 96.909l135.082 135.082c26.561 26.625 58.896 39.905 96.909 39.937 38.463-0.032 71.727-13.793 98.833-41.83l41.83 41.83c-28.036 27.073-41.862 60.307-41.83 99.282-0.032 38.045 13.312 70.348 39.423 96.491l134.151 134.6c26.111 27.073 58.446 40.386 96.909 40.386 38.045 0 70.316-13.28 96.459-39.423l69.866-69.418c27.105-26.111 40.386-58.414 40.386-96.427 0-38.045-13.28-70.348-39.905-96.973l-135.082-135.082c-26.625-26.561-58.928-39.873-96.909-39.905-38.463 0-71.759 13.859-98.865 41.862l-41.798-41.862c28.004-27.041 41.798-60.339 41.798-99.25 0-38.045-13.28-70.348-39.423-96.491l-134.151-134.632c-26.111-27.073-58.446-40.354-96.909-40.354-38.045 0-70.348 13.28-96.459 39.423l-69.898 69.418c-27.041 26.111-40.322 58.382-40.322 96.427z" />
<glyph unicode="&#xe073;" glyph-name="uniE073" d="M181.691 503.276h144.352v-42.761h-144.352v42.761zM236.64 635.486l30.314 30.158 101.811-102.332-30.314-30.158-101.811 102.332zM399.343 719.896l42.729-0.188-0.636-144.352-42.729 0.188 0.636 144.352zM721.761 260.989h144.352v-42.729h-144.352v42.729zM811.134 86.033l-30.331-30.141-101.754 102.389 30.331 30.141 101.754-102.389zM648.472 1.598l-42.793 0.188 0.636 144.352 42.793-0.188-0.636-144.352zM447.78 226.633c7.764-8.95 11.902-18.958 11.902-30.379 0-12.832-4.33-23.321-13.345-32.336l-134.151-134.568c-8.532-8.596-19.471-12.832-32.271-12.832-12.832 0-23.321 4.266-32.336 12.35l-69.866 69.354c-9.014 9.014-13.28 19.471-13.28 31.822 0 12.832 4.266 23.321 13.28 32.336l135.114 135.050c6.511 6.447 32.88 7.732 50.877 4.298l68.487 68.519c-24.796 20.786-53.828 31.725-87.028 31.725-38.045-0.032-70.348-13.312-96.909-39.937l-135.082-135.082c-26.625-26.561-39.905-58.896-39.905-96.909s13.28-70.284 40.354-96.427l69.866-69.418c26.111-26.111 58.446-39.423 96.491-39.423 38.463 0 70.797 13.28 96.909 40.354l134.151 134.632c26.111 26.111 39.423 58.446 39.423 96.491 0 36.922-12.832 68.647-38.109 94.92l-64.573-64.541zM912.851 695.97l-69.866 69.418c-26.111 26.079-58.382 39.423-96.427 39.423-38.527 0-70.797-13.312-96.909-40.386l-134.151-134.6c-26.111-26.111-39.456-58.446-39.456-96.459 0-33.618 10.971-62.713 31.757-87.541l65.152 65.152c-3.946 6.865-6.127 14.211-6.127 22.391 0 12.798 4.266 23.289 13.28 32.304l134.151 134.6c9.014 9.014 19.471 13.312 32.336 13.312 12.35 0 23.257-4.298 32.336-12.832l69.802-69.354c9.078-9.014 13.345-19.471 13.345-31.822 0-12.832-4.266-23.321-13.345-32.336l-135.114-135.082c-8.532-8.564-19.471-12.832-32.271-12.832-11.388 0-21.3 3.69-29.961 10.971l-64.541-64.605c26.241-25.214 57.901-38.109 94.47-38.109 37.981 0 70.284 13.312 96.909 39.905l135.082 135.082c26.625 26.593 39.905 58.928 39.905 96.941 0.064 38.045-13.216 70.38-40.354 96.459z" />
<glyph unicode="&#xe074;" glyph-name="uniE074" d="M384.94 749.732h513.252v-128.313h-513.252v128.313zM384.94 428.95h256.626v-128.313h-256.626v128.313zM384.94 108.168h384.94v-128.313h-384.94v128.313zM289.442-4.106l-48.117 48.117 48.117 48.117-32.078 32.078-48.117-48.117-48.117 48.117-32.078-32.078 48.117-48.117-48.117-48.117 32.078-32.078 48.117 48.117 48.117-48.117zM291.624 765.772l-94.118-94.118-51.485 51.517-33.264-33.264 84.494-84.526 0.32 0.32 0.256-0.32 127.126 127.062zM291.624 444.99l-94.118-94.118-51.485 51.517-33.264-33.264 84.494-84.526 0.32 0.32 0.256-0.32 127.126 127.062z" />
<glyph unicode="&#xe075;" glyph-name="uniE075" d="M128.313 140.214h769.878v-224.483h-769.878v224.483zM338.233 332.748h70.764v96.235h-120.293l-160.391-224.611h120.967zM633.546 332.748h54.725l84.269-128.377h125.651l-160.391 224.611h-104.255zM470.941 553.863h2.213v-281.807h-32.078c-35.415 0-64.157-28.71-64.157-64.157l1.091-3.496h286.524l1.091 3.496c0 35.447-28.742 64.157-64.157 64.157h-32.078v281.807h2.213c35.415 0 64.157 28.742 64.157 64.157v68.167c0 35.415-28.742 64.125-64.157 64.125h-100.693c-35.415 0-64.157-28.71-64.157-64.125v-68.167c0.032-35.415 28.774-64.157 64.189-64.157zM470.941 702.225h100.693v-100.309h-100.693v100.309z" />
<glyph unicode="&#xe076;" glyph-name="uniE076" d="M419.391 734.143v-751.433h494.839l-494.839 751.433zM515.626 413.008l219.961-334.127h-219.961v334.127zM670.308 528.040h147.688v-224.291l64.157-97.421v385.869h-254.060zM323.156 110.959h-146.726v417.081h146.726v64.157h-210.883v-545.395h210.883z" />
<glyph unicode="&#xe077;" glyph-name="uniE077" d="M610.417 234.62v-132.194l287.774 287.774-0.866 0.866 0.866 0.898-287.774 287.742v-132.194l152.564-156.446zM416.087 551.329v128.313l-287.774-287.742 0.866-0.898-0.866-0.866 287.774-287.774v132.194l-152.564 156.446z" />
<glyph unicode="&#xe078;" glyph-name="uniE078" d="M513.252 557.263c-106.148 0-192.47-86.322-192.47-192.47s86.322-192.47 192.47-192.47 192.47 86.322 192.47 192.47-86.322 192.47-192.47 192.47zM513.252 749.732c-212.615 0-384.94-172.356-384.94-384.94s172.324-384.94 384.94-384.94 384.94 172.356 384.94 384.94-172.324 384.94-384.94 384.94zM513.252 76.090c-159.204 0-288.705 129.499-288.705 288.705s129.499 288.705 288.705 288.705 288.705-129.499 288.705-288.705-129.499-288.705-288.705-288.705z" />
<glyph unicode="&#xe079;" glyph-name="uniE079" d="M465.135 76.090h96.235v-96.235h336.822l-128.313 769.878h-513.252l-128.313-769.878h336.822v96.235zM465.135 653.497h96.235v-192.47h-96.235v192.47zM465.135 364.794h96.235v-192.47h-96.235v192.47z" />
<glyph unicode="&#xe07a;" glyph-name="uniE07A" d="M256.626 364.794c0 70.187 28.358 133.831 74.196 180.184l-158.145 91.294c-11.195 6.447-23.674 9.687-36.184 9.687-12.478 0-24.956-3.24-36.152-9.687-22.391-12.928-36.184-36.826-36.184-62.649v-417.659c0-25.855 13.793-49.722 36.184-62.649 11.195-6.447 23.674-9.687 36.152-9.687 12.51 0 24.988 3.24 36.184 9.687l158.113 91.294c-45.808 46.385-74.164 109.996-74.164 180.184zM926.163 636.273c-11.195 6.447-23.674 9.687-36.152 9.687-12.51 0-24.988-3.24-36.184-9.687l-158.145-91.294c45.84-46.353 74.196-110.028 74.196-180.184s-28.358-133.799-74.164-180.184l158.113-91.294c11.195-6.447 23.674-9.687 36.184-9.687 12.478 0 24.956 3.24 36.152 9.687 22.391 12.928 36.184 36.826 36.184 62.649v417.659c0 25.823-13.793 49.722-36.184 62.649zM513.252 525.185c-88.567 0-160.391-71.791-160.391-160.391s71.823-160.391 160.391-160.391 160.391 71.791 160.391 160.391-71.823 160.391-160.391 160.391z" />
<glyph unicode="&#xe07b;" glyph-name="uniE07B" d="M351.641 142.876v502.795c-64.317-397.226-167.738-276.867-251.398-610.482 3.594 0.32 821.011 1.059 826.016 0-83.693 333.614-187.145 213.256-251.398 610.482v-502.795h-323.221zM423.433 214.058h179.606c0 0 0 324.92 0 446.402-11.58 66.594-54.661 161.193-89.852 161.193-35.157 0-78.206-94.598-89.756-161.193 0-121.481 0-446.402 0-446.402zM369.574-92.065h-179.541l35.863 71.855h107.751zM836.441-92.065h-179.574l35.96 71.855h107.686z" />
<glyph unicode="&#xe07c;" glyph-name="uniE07C" d="M371.274 96.716v331.914c-42.439-262.24-110.734-182.814-165.973-403.031 2.373 0.192 541.994 0.674 545.331 0-55.271 220.217-123.566 140.824-165.973 403.031v-331.946h-213.384zM418.685 143.679h118.562c0 0 0 214.54 0 294.736-7.634 43.947-36.088 106.372-59.313 106.372s-51.645-62.424-59.281-106.372c0.032-80.227 0.032-294.736 0.032-294.736zM383.111-58.415h-118.53l23.674 47.411h71.149zM691.35-58.415h-118.594l23.77 47.411h71.117zM852.961 468.247c-12.96 75.801-48.406 148.49-106.916 207.001-150.351 150.351-394.049 150.351-544.4 0-93.476-93.476-128.731-223.041-105.987-343.847h98.768c-24.412 95.529 0.48 201.034 75.288 275.808 112.723 112.755 295.537 112.755 408.292 0 39.649-39.649 65.055-88.087 76.859-138.964h-73.94l128.248-222.238 128.377 222.238h-84.591z" />
<glyph unicode="&#xe07d;" glyph-name="uniE07D" d="M96.235 366.976l172.036-79.362 417.017 253.675-317.383-298.906 238.020-107.077 324.343 626.648zM367.777 181.402v-213.77l85.392 175.371z" />
<glyph unicode="&#xe07e;" glyph-name="uniE07E" d="M713.421 781.748h-400.401c-17.867 0-32.336-14.339-32.336-32.078v-769.75c0-17.739 14.467-32.078 32.336-32.078h400.401c17.932 0 32.4 14.339 32.4 32.078v769.75c0 17.739-14.467 32.078-32.4 32.078zM513.252-34.677c-26.497 0-48.117 21.492-48.117 48.053 0 26.625 21.621 48.117 48.117 48.117 26.561 0 48.117-21.492 48.117-48.117 0-26.561-21.557-48.053-48.117-48.053zM681.663 77.726h-336.822v641.566h336.822v-641.566z" />
<glyph unicode="&#xe07f;" glyph-name="uniE07F" d="M866.113 661.517h-705.722c-17.739 0-32.078-14.339-32.078-32.078v-529.291c0-17.739 14.339-32.078 32.078-32.078h705.722c17.739 0 32.078 14.339 32.078 32.078v529.291c0 17.739-14.339 32.078-32.078 32.078zM513.252 84.109c-17.675 0-32.078 14.371-32.078 32.078 0 17.739 14.403 32.078 32.078 32.078 17.739 0 32.078-14.339 32.078-32.078 0-17.707-14.339-32.078-32.078-32.078zM835.414 166.999h-645.575v430.362h645.575v-430.362z" />
<glyph unicode="&#xe080;" glyph-name="uniE080" d="M898.191 172.325v449.096c0 17.739-14.339 32.078-32.078 32.078h-705.722c-17.739 0-32.078-14.339-32.078-32.078v-449.096h-64.157c2.823-35.831 31.501-96.235 66.979-96.235h764.296c35.415 0 64.157 60.403 66.915 96.235h-64.157zM834.034 172.325h-641.566v408.997h641.566v-408.997z" />
<glyph unicode="&#xe081;" glyph-name="uniE081" d="M930.269 669.793h-834.034c-17.739 0-32.078-14.339-32.078-32.078v-513.252c0-17.739 14.339-32.078 32.078-32.078h834.034c17.739 0 32.078 14.339 32.078 32.078v513.252c0 17.739-14.339 32.078-32.078 32.078zM898.191 164.561h-769.878v433.056h769.878v-433.056zM256.626 46.963h513.252v-96.235h-513.252v96.235z" />
<glyph unicode="&#xe082;" glyph-name="uniE082" d="M792.942 406.239c-3.882 62.296-55.495 111.696-118.786 111.696-17.867 0-34.709-4.042-49.946-11.099-35.221 72.914-109.9 123.244-196.352 123.244-120.036 0-217.394-97.005-218.036-216.914-56.009-26.273-94.856-83.211-94.856-149.197 0-87.895 68.808-159.718 155.516-164.497h502.089c78.142 8.436 138.9 75.159 138.9 155.516 0 73.138-50.491 134.536-118.53 151.25zM514.119 160.167l-0.866 0.866-0.866-0.866-191.539 191.539 68.037 68.037 124.367-124.367 124.367 124.367 68.037-68.037-191.539-191.539z" />
<glyph unicode="&#xe083;" glyph-name="uniE083" d="M792.942 406.239c-3.882 62.296-55.495 111.696-118.786 111.696-17.867 0-34.709-4.042-49.946-11.099-35.221 72.914-109.9 123.244-196.352 123.244-120.036 0-217.394-97.005-218.036-216.914-56.009-26.273-94.856-83.211-94.856-149.197 0-87.895 68.808-159.718 155.516-164.497h502.089c78.142 8.436 138.9 75.159 138.9 155.516 0 73.138-50.491 134.536-118.53 151.25zM637.62 197.57l-124.367 124.367-124.367-124.367-68.037 68.037 191.539 191.539 0.866-0.866 0.866 0.866 191.539-191.539-68.037-68.037z" />
<glyph unicode="&#xe084;" glyph-name="uniE084" d="M465.135 302.145l-313.020 180.696v-359.244l313.020-180.696zM513.38 385.421l314.879 181.82-315.009 181.852-314.879-181.82zM561.37 302.017v-359.18l313.020 180.761v359.18z" />
<glyph unicode="&#xe085;" glyph-name="uniE085" d="M970.624 614.972h-144.352v144.352h-96.235v-144.352h-144.352v-96.235h144.352v-144.352h96.235v144.352h144.352zM368.868 320.943l-312.988 180.696v-359.244l312.988-180.696zM665.881 310.229v126.485l-200.778-115.898v-359.18l313.052 180.761v167.834zM521.528 706.299l-104.511 61.59-314.912-181.82 315.009-181.852 104.415 60.275z" />
<glyph unicode="&#xe086;" glyph-name="uniE086" d="M920.518 447.363c-59.857 170.047-151.024 222.558-229.969 192.47-25.823-9.785-35.061-37.724-61.91-52.191-31.405-16.84-199.431-16.84-230.77 0-26.849 14.467-36.12 42.407-61.878 52.191-78.944 30.089-170.143-22.423-230.033-192.47-59.857-170.047-44.268-332.234 34.709-362.26 61.878-23.61 89.209 86.964 205.91 151.986 52.898 29.512 283.315 33.264 333.389 0 110.35-73.556 144.032-175.629 205.91-151.986 78.976 30.025 94.534 192.214 34.645 362.26zM305.385 283.604c-70.893 0-128.313 57.452-128.313 128.313s57.42 128.313 128.313 128.313 128.313-57.452 128.313-128.313-57.452-128.313-128.313-128.313zM723.011 524.19c21.877 0 39.553-17.675 39.553-39.521s-17.707-39.521-39.553-39.521c-21.845 0-39.521 17.675-39.521 39.521s17.675 39.521 39.521 39.521zM650.29 372.364c-21.877 0-39.553 17.675-39.553 39.521s17.707 39.521 39.553 39.521c21.845 0 39.521-17.675 39.521-39.521s-17.675-39.521-39.521-39.521zM723.011 299.643c-21.845 0-39.521 17.739-39.521 39.521 0 21.877 17.707 39.585 39.521 39.585 21.877 0 39.553-17.739 39.553-39.585 0-21.813-17.675-39.521-39.553-39.521zM795.765 372.364c-21.877 0-39.553 17.675-39.553 39.521s17.707 39.521 39.553 39.521c21.845 0 39.521-17.675 39.521-39.521s-17.707-39.521-39.521-39.521zM305.866 508.151c-53.026 0.32-96.459-42.665-96.747-95.721s42.665-96.427 95.721-96.747c53.026-0.256 96.459 42.665 96.747 95.721s-42.665 96.491-95.721 96.747z" />
<glyph unicode="&#xe087;" glyph-name="uniE087" d="M305.866 444.059c-53.058 0.32-96.491-42.665-96.747-95.721-0.32-53.058 42.665-96.427 95.721-96.747 52.994-0.256 96.427 42.665 96.747 95.721 0.256 53.122-42.665 96.491-95.721 96.747zM421.347 293.741c-20.434-43.723-64.477-74.228-115.963-74.228-70.925 0-128.313 57.452-128.313 128.313s57.388 128.313 128.313 128.313c51.453 0 95.561-30.443 115.963-74.196v115.096c-10.329 1.829-18.669 3.946-23.481 6.511-26.817 14.467-36.088 42.407-61.846 52.191-78.944 30.089-170.175-22.423-230.065-192.47-59.825-170.047-44.236-332.299 34.709-362.324 61.91-23.545 89.209 86.964 205.942 151.986 14.275 7.956 41.67 14.051 74.742 17.997v102.81zM920.486 383.272c-59.825 170.047-150.992 222.558-229.937 192.47-25.823-9.785-35.093-37.724-61.91-52.191-4.812-2.567-13.216-4.684-23.481-6.511v-324.856c33.522-3.818 61.014-10.073 74.806-19.247 110.318-73.556 144.032-175.564 205.878-151.986 79.009 30.025 94.566 192.278 34.645 362.324zM723.011 460.099c21.877 0 39.521-17.675 39.521-39.521s-17.675-39.521-39.521-39.521-39.521 17.675-39.521 39.521 17.643 39.521 39.521 39.521zM650.258 308.272c-21.877 0-39.521 17.739-39.521 39.521 0 21.877 17.675 39.585 39.521 39.585s39.521-17.739 39.521-39.585c0.032-21.781-17.643-39.521-39.521-39.521zM723.011 235.551c-21.877 0-39.521 17.739-39.521 39.585 0 21.813 17.675 39.521 39.521 39.521s39.521-17.739 39.521-39.521c0-21.877-17.643-39.585-39.521-39.585zM795.765 308.272c-21.877 0-39.585 17.739-39.585 39.521 0 21.877 17.739 39.585 39.585 39.585 21.813 0 39.521-17.739 39.521-39.585 0-21.781-17.739-39.521-39.521-39.521zM662.865 606.118l-149.613 209.599-149.677-209.599h89.852v-376.663h119.652v376.663z" />
<glyph unicode="&#xe088;" glyph-name="uniE088" d="M481.141 717.655c-212.583 0-384.94-172.356-384.94-384.94s172.356-384.94 384.94-384.94 384.94 172.356 384.94 384.94h-384.94v384.94zM545.299 781.812v-384.94h384.94c0 212.583-172.356 384.94-384.94 384.94z" />
<glyph unicode="&#xe089;" glyph-name="uniE089" d="M112.243 172.325h128.313v-192.47h-128.313v192.47zM336.79 300.637h128.313v-320.782h-128.313v320.782zM561.338 493.107h128.313v-513.252h-128.313v513.252zM785.885 749.732h128.313v-769.878h-128.313v769.878z" />
<glyph unicode="&#xe08a;" glyph-name="uniE08A" d="M224.547 364.794c0 159.204 129.499 288.705 288.705 288.705s288.705-129.499 288.705-288.705c0-27.812-4.17-54.629-11.548-80.131h99.346c5.421 25.887 8.436 52.64 8.436 80.131 0 212.583-172.324 384.94-384.94 384.94s-384.94-172.356-384.94-384.94c0-27.491 3.015-54.244 8.468-80.131h99.314c-7.378 25.502-11.548 52.319-11.548 80.131zM790.408 284.663h-149.165c-1.765-69.226-58.318-125.105-127.992-125.105s-126.26 55.881-127.992 125.105h-248.478c36.89-174.121 191.347-304.808 376.47-304.808s339.58 130.687 376.47 304.808h-99.314zM577.408 287.87c0-35.433-28.724-64.157-64.157-64.157s-64.157 28.724-64.157 64.157c0 35.433 28.724 64.157 64.157 64.157s64.157-28.724 64.157-64.157zM691.494 515.578l24.116-21.106-184.859-211.215-24.116 21.106 184.859 211.215zM497.213 621.228h32.078v-128.313h-32.078v128.313zM256.658 380.832h96.235v-32.078h-96.235v32.078zM675.536 380.832h96.235v-32.078h-96.235v32.078z" />
<glyph unicode="&#xe08b;" glyph-name="uniE08B" d="M974.12 654.75l-171.201 171.201-254.348-63.195-496.187-496.219 362.933-362.901 496.187 496.187 62.617 254.926zM415.317-5.646l-272.185 272.185 435.27 435.302 201.964 55.913 125.554-125.554-56.105-203.312-434.5-434.532zM821.299 592.357c0-44.291-35.904-80.195-80.195-80.195s-80.195 35.904-80.195 80.195c0 44.291 35.904 80.195 80.195 80.195s80.195-35.904 80.195-80.195zM680.903 350.698l-265.589-265.589-181.437 181.437 265.589 265.589 181.437-181.437z" />
<glyph unicode="&#xe08c;" glyph-name="uniE08C" d="M157.601 411.788c24.058 0 42.985 4.652 56.714 13.987s20.626 22.487 20.626 39.456v79.811c0 29.094 5.133 50.909 15.365 65.344 10.233 14.467 26.977 24.988 50.138 31.565 23.161 6.607 55.175 9.913 96.011 9.913v-87.639c-18.669-0.642-31.277-2.053-37.884-4.266s-11.87-5.613-15.879-10.201c-3.946-4.62-5.967-10.907-5.967-18.861v-85.135c0-23.674-5.935-41.862-17.771-54.565-11.838-12.67-31.051-20.85-57.676-24.668v-3.786c26.817-4.17 46.128-12.478 57.836-24.796s17.611-29.865 17.611-52.48v-86.74c0-8.18 2.181-14.563 6.575-19.183 4.426-4.62 10.265-8.020 17.611-10.201s19.183-3.626 35.511-4.266v-87.349c-41.284 0-73.428 3.336-96.491 10.041s-39.649 17.354-49.818 31.886c-10.137 14.563-15.205 36.634-15.205 66.146v77.95c0 16.776-7.025 29.897-21.044 39.295-14.051 9.463-32.816 14.147-56.265 14.147v94.598zM868.904 317.189c-23.257 0-41.894-4.684-55.913-14.147-14.051-9.399-21.044-22.487-21.044-39.295v-77.95c0-29.32-5.133-51.325-15.398-65.984-10.233-14.659-26.913-25.374-49.978-32.078s-55.111-10.041-96.171-10.041v87.349c22.615 0.834 38.205 3.946 46.835 9.271 8.596 5.357 12.864 13.473 12.864 24.38v86.74c0 22.615 5.903 40.13 17.611 52.48s31.019 20.658 57.836 24.796v3.786c-26.625 3.786-45.84 11.998-57.676 24.668-11.838 12.702-17.771 30.891-17.771 54.565v85.135c0 8.18-2.021 14.499-6.127 19.023-4.074 4.522-9.303 7.86-15.686 10.041s-19.023 3.626-37.884 4.266v87.671c41.060 0 73.106-3.304 96.171-9.913 23.065-6.575 39.713-17.098 49.978-31.565 10.265-14.435 15.398-36.248 15.398-65.344v-79.811c0-16.97 6.801-30.121 20.434-39.456s32.496-13.987 56.554-13.987v-94.598z" />
<glyph unicode="&#xe08d;" glyph-name="uniE08D" d="M833.585-20.081h-320.782v96.235h320.782v-96.235zM192.982 208.348l64.157-68.037 223.585 223.617-0.866 0.866 0.866 0.866-223.585 223.617-64.157-68.037 152.532-156.446z" />
<glyph unicode="&#xe08e;" glyph-name="uniE08E" d="M513.252 416.921l384.94 200.746v50.555h-769.878v-50.619zM513.252 308.208l-384.94 200.682v-447.524h769.878v447.524z" />
<glyph unicode="&#xe08f;" glyph-name="uniE08F" d="M288.705 589.342h449.096v-64.157h-449.096v64.157zM288.705 461.028h449.096v-64.157h-449.096v64.157zM288.705 332.716h449.096v-64.157h-449.096v64.157zM288.705 204.402h246.618v-64.157h-246.618v64.157zM192.47 749.732v-769.878h449.096l192.47 192.47v577.408h-641.566zM641.566 172.325v-160.391h-417.017v673.643h577.408v-513.252h-160.391z" />
<glyph unicode="&#xe090;" glyph-name="uniE090" d="M160.391 749.732h705.722v-64.157h-705.722v64.157zM160.391-20.145h705.722v-64.157h-705.722v64.157zM769.878 573.27v48.149h-513.252v-48.149c0-106.276 117.278-117.278 192.47-192.47 16.97-16.97 16.97-79.201 0-96.203-75.191-75.159-192.47-86.194-192.47-192.47v-48.117h513.252v48.117c0 106.276-117.342 117.31-192.47 192.47-17.034 17.002-17.034 79.233 0 96.203 75.127 75.191 192.47 86.194 192.47 192.47zM532.050 426.159c-7.7-7.634-13.987-17.354-18.797-28.358-4.876 11.003-11.163 20.722-18.797 28.358-32.271 32.271-68.744 53.602-100.918 72.433-46 26.881-64.734 40.226-70.54 58.671h380.544c-5.839-18.445-24.636-31.789-70.604-58.671-32.142-18.829-68.615-40.162-100.886-72.433z" />
<glyph unicode="&#xe091;" glyph-name="uniE091" d="M513.252 749.732c-212.583 0-384.94-172.324-384.94-384.94s172.356-384.94 384.94-384.94c212.647 0 384.94 172.324 384.94 384.94s-172.292 384.94-384.94 384.94zM513.252 76.090c-159.462 0-288.705 129.243-288.705 288.705s129.243 288.705 288.705 288.705 288.705-129.243 288.705-288.705-129.243-288.705-288.705-288.705zM681.406 522.458v31.501h-336.308v-31.501c0-69.674 76.923-76.859 126.131-126.131 11.163-11.163 11.163-51.871 0-63.034-49.176-49.24-126.131-56.522-126.131-126.131v-31.565h336.308v31.565c0 69.61-76.859 76.859-126.131 126.131-11.163 11.163-11.163 51.871 0 63.034 49.272 49.272 126.131 56.458 126.131 126.131zM525.602 426.031c-5.004-5.004-9.142-11.388-12.35-18.605-3.144 7.218-7.282 13.601-12.286 18.605-21.172 21.108-45.038 35.157-66.114 47.443-30.121 17.675-42.471 26.369-46.289 38.463h249.409c-3.818-12.094-16.168-20.786-46.289-38.463-21.044-12.286-44.91-26.337-66.081-47.443z" />
<glyph unicode="&#xe092;" glyph-name="uniE092" d="M537.632 625.43v-45.616c12.158-2.021 23.065-5.133 32.752-9.271 9.719-4.266 19.311-10.265 28.71-18.157s16.776-19.375 22.167-34.453c5.325-15.173 8.020-36.28 8.020-63.483h-100.693v32.206c0 15.109-2.373 24.124-7.089 26.945-4.684 2.887-9.014 4.33-13.088 4.33-2.309 0-5.004-0.802-8.020-2.309-3.080-1.507-5.325-4.458-6.833-8.758-1.507-4.394-2.437-7.828-2.759-10.329-0.384-2.501-0.514-6.319-0.514-11.356 0-15.398 3.56-27.203 10.843-35.285 7.218-8.020 21.044-18.093 41.542-30.185l15.109-8.596c30.571-17.418 51.871-35.96 63.963-55.623 12.094-19.6 18.093-42.054 18.093-67.237 0-10.041-1.573-25.759-4.748-47.059-3.144-21.364-12.96-39.103-29.32-53.378s-39.103-23.93-68.167-28.998v-54.629h-51.677v55.207c-14.531 3.015-26.753 6.705-36.73 11.035-10.041 4.394-20.69 11.772-31.95 22.167-11.356 10.393-19.536 23.802-24.636 40.29-4.074 15.782-6.063 33.907-6.063 54.372v21.172h102.266v-30.218l1.507-32.752c0.994-8.692 3.432-14.531 7.282-17.354 3.882-2.887 7.828-4.266 11.838-4.266 3.080 0 6.031 0.738 8.822 2.181 2.887 1.573 5.325 4.652 7.346 9.335s3.015 11.902 3.015 21.685c0 25.502-2.373 41.798-7.089 48.856-4.010 7.025-19.471 19.311-46.289 36.73l-11.099 6.575c-28.518 16.424-48.696 32.88-60.403 49.304-11.452 17.867-17.162 37.468-17.162 58.961 0 9.719 2.021 24.988 6.063 45.872 4.010 20.786 13.152 36.666 27.427 47.539 14.211 10.907 37.146 20.562 68.744 28.934v45.616h48.824zM513.252 749.732c-212.647 0-384.94-172.356-384.94-384.94s172.292-384.94 384.94-384.94c212.583 0 384.94 172.356 384.94 384.94s-172.356 384.94-384.94 384.94zM513.252 76.090c-159.204 0-288.705 129.499-288.705 288.705s129.499 288.705 288.705 288.705 288.705-129.499 288.705-288.705-129.499-288.705-288.705-288.705z" />
<glyph unicode="&#xe093;" glyph-name="uniE093" d="M487.204 306.187c32.336-14.403 70.284 0.128 84.719 32.528 3.368 7.7 5.068 15.654 5.389 23.545l242.287 137.905-31.693 55.751-240.651-136.975c-2.501 1.573-5.004 3.272-7.764 4.458-16.36 7.346-34.131 7.153-49.56 1.059l-124.367 97.357-39.521-50.491 124.11-97.165c-4.138-27.748 10.169-56.009 37.050-67.973zM885.167 463.691l-87.413-49.754c9.463-54.501 3.432-112.403-20.786-166.711-64.894-145.667-235.583-211.011-381.25-146.181-145.603 64.958-211.011 235.711-146.117 381.378 64.894 145.603 235.647 211.011 381.25 146.117 27.203-12.158 51.613-28.004 72.85-46.61l87.092 49.496c-33.458 34.901-73.94 64.093-120.743 85.007-194.202 86.482-421.765-0.706-508.344-194.843-86.579-194.234 0.642-421.83 194.843-508.312 194.17-86.579 421.701 0.642 508.312 194.715 37.338 83.725 42.151 173.543 20.306 255.696z" />
<glyph unicode="&#xe094;" glyph-name="uniE094" d="M847.572 468.567c67.493 67.525 67.493 177.072 0 244.533-8.692 8.692-18.061 16.136-28.004 22.615v-114.712l-94.278-68.102-94.31 68.102v114.68c-9.913-6.447-19.311-13.923-27.94-22.583-47.443-47.379-26.881-114.038-41.67-174.987-30.443-125.619-331.561-352.732-397.963-401.62-3.754-2.181-7.153-4.748-10.457-7.634-1.637-1.187-2.695-1.957-2.695-1.957l0.128-0.128c-0.384-0.384-0.866-0.642-1.315-1.059-28.87-28.87-27.427-77.18 3.272-107.815 30.699-30.699 79.009-32.142 107.943-3.272 0.384 0.384 0.642 0.866 0.994 1.315l0.128-0.128c0 0 0.802 1.059 1.957 2.631 2.887 3.368 5.517 6.769 7.634 10.457 48.856 66.402 276.002 367.585 401.556 398.027 60.916 14.755 127.575-5.711 175.019 41.638zM238.020 36.89c-16.616-16.616-45.038-15.173-63.483 3.272-18.349 18.285-19.856 46.803-3.272 63.419 16.616 16.552 45.102 15.109 63.483-3.272 18.381-18.413 19.888-46.867 3.272-63.419z" />
<glyph unicode="&#xe095;" glyph-name="uniE095" d="M286.395 32.464c3.368 3.882 6.383 7.892 8.886 12.158 39.713 53.956 179.702 239.913 310.806 360.816l-75.993 75.993c-120.935-131.136-306.797-271.222-360.752-310.87-4.33-2.501-8.34-5.581-12.222-8.886-1.893-1.379-3.144-2.245-3.144-2.245l0.128-0.192c-0.448-0.448-1.059-0.738-1.507-1.187-33.842-33.842-32.142-90.396 3.818-126.324 35.895-35.895 92.481-37.596 126.324-3.818 0.448 0.514 0.738 1.123 1.187 1.573l0.128-0.128c0-0.032 0.962 1.219 2.341 3.112zM781.106 521.881c-16.97 16.905-12.542 34.259-2.823 54.822l-96.683 96.619c-62.040 27.203-196.672 75.705-279.434 40.098l0.448-0.448c83.949-4.458 201.932-95.368 201.932-143.166 0-14.723-12.030-23.257-23.193-35.575l77.244-77.18c20.498 9.719 37.852 14.147 54.822-2.823 17.034-16.97 20.37-42.151 10.649-62.713l54.437-54.437 119.684 119.716-54.437 54.372c-20.498-9.687-45.68-6.255-62.649 10.713z" />
<glyph unicode="&#xe096;" glyph-name="uniE096" d="M405.244 277.798c-58.19-47.861-109.066-85.97-132.194-102.939-3.754-2.245-7.282-4.876-10.649-7.828-1.637-1.187-2.759-1.957-2.759-1.957l0.128-0.128c-0.384-0.448-0.866-0.674-1.315-1.059-29.512-29.512-28.004-78.816 3.336-110.157 31.341-31.277 80.645-32.752 110.093-3.336 0.448 0.448 0.674 0.93 1.059 1.379l0.192-0.192c0 0 0.738 1.123 1.957 2.759 2.951 3.368 5.581 6.897 7.764 10.649 16.84 22.935 54.565 73.17 101.945 130.88-28.55 31.822-55.367 59.377-79.555 81.928zM629.728 346.092c-19.92 18.991-41.477 41.156-64.093 66.114 6.833 6.961 71.855 74.293 71.855 74.293 9.655 10.779 20.178 18.157 20.178 31.019 0 41.67-102.874 120.935-176.046 124.817l-0.384 0.384c72.175 31.083 189.518-11.292 243.603-34.965l84.205-84.205c-8.468-17.932-12.286-33.008 2.501-47.797s36.73-17.803 54.565-9.271l47.475-47.443-104.319-104.383-47.443 47.475c8.468 17.867 5.517 39.841-9.271 54.629-14.852 14.787-29.961 10.907-47.797 2.437l-75.031-73.106zM390.264 650.516c-58.318 58.318-152.885 58.318-211.203 0-7.442-7.506-13.923-15.59-19.471-24.188h99.122l58.767-81.447-58.767-81.447h-99.122c5.581-8.532 12.030-16.616 19.471-24.124 40.964-40.9 98.544-23.193 151.185-35.96 108.521-26.305 304.614-286.395 346.798-343.783 1.893-3.208 4.138-6.127 6.639-9.014 0.994-1.379 1.701-2.309 1.701-2.309l0.064 0.064c0.384-0.32 0.578-0.738 0.93-1.059 24.924-24.924 66.658-23.674 93.155 2.823 26.497 26.433 27.812 68.167 2.823 93.155-0.384 0.32-0.738 0.578-1.123 0.866l0.128 0.128c0 0-0.93 0.674-2.309 1.701-2.887 2.437-5.839 4.684-9.014 6.575-57.452 42.215-317.447 238.406-343.783 346.862-12.734 52.608 4.972 110.19-35.992 151.153zM763.174 123.982c14.275-14.275 13.024-38.911-2.823-54.757-15.912-15.912-40.483-17.162-54.822-2.823s-13.088 38.911 2.823 54.822c15.846 15.846 40.483 17.098 54.822 2.759z" />
<glyph unicode="&#xe097;" glyph-name="uniE097" d="M513.252 749.732c-212.583 0-384.94-172.324-384.94-384.908 0-212.647 172.356-384.94 384.94-384.94s384.94 172.292 384.94 384.94c0 212.583-172.356 384.908-384.94 384.908zM352.861 525.217c35.415 0 64.157-28.71 64.157-64.157s-28.742-64.157-64.157-64.157c-35.447 0-64.157 28.71-64.157 64.157s28.71 64.157 64.157 64.157zM513.252 95.721c-88.793 0-168.282 49.754-222.655 128.313h445.278c-54.405-78.56-133.831-128.313-222.622-128.313zM673.643 396.904c-35.447 0-64.157 28.71-64.157 64.157s28.71 64.157 64.157 64.157c35.415 0 64.157-28.71 64.157-64.157s-28.742-64.157-64.157-64.157z" />
<glyph unicode="&#xe098;" glyph-name="uniE098" d="M513.252 749.732c-212.583 0-384.94-172.324-384.94-384.908 0-212.647 172.356-384.94 384.94-384.94s384.94 172.292 384.94 384.94c0 212.583-172.356 384.908-384.94 384.908zM237.444 391.065l70.058 69.994-70.058 70.058 45.422 45.294 69.994-69.994 69.93 69.994 45.422-45.358-69.994-69.994 69.994-69.994-45.358-45.358-70.058 69.994-69.93-69.994-45.422 45.358zM704.022 140.919h-384.94v64.157h384.94v-64.157zM743.637 345.707l-70.058 69.994-69.93-69.994-45.422 45.358 70.058 69.994-70.058 70.058 45.422 45.294 69.994-69.994 69.93 69.994 45.422-45.358-69.994-69.994 69.994-69.994-45.358-45.358z" />
</font>
</defs>
</svg>
