<?xml version="1.0" encoding="utf-8"?>
<!-- Generator: Adobe Illustrator 23.0.3, SVG Export Plug-In . SVG Version: 6.00 Build 0)  -->
<svg version="1.1" id="Livello_1" xmlns="http://www.w3.org/2000/svg" xmlns:xlink="http://www.w3.org/1999/xlink" x="0px" y="0px"
	 viewBox="0 0 188 41" style="enable-background:new 0 0 188 41;" xml:space="preserve">
<style type="text/css">
	.st0{fill:#474849;}
	.st1{fill:#14CBAC;}
	.st2{opacity:0.75;fill:#14CBAC;}
	.st3{opacity:0.5;fill:#14CBAC;}
	.st4{opacity:0.25;fill:#14CBAC;}
</style>
<title>ictinfoTavola disegno 1getplayoff</title>
<path class="st0" d="M60.4,16.9c0,4.5-3.3,7.2-8.6,7.2h-5.7v6.7h-2.2V9.7h7.9C57.1,9.7,60.4,12.4,60.4,16.9z M58.2,16.9
	c0-3.4-2.2-5.3-6.5-5.3h-5.6v10.6h5.6C55.9,22.2,58.2,20.2,58.2,16.9z"/>
<path class="st0" d="M65.2,9.7h2.2v19.2h11.9v1.9H65.2V9.7z"/>
<path class="st0" d="M96.4,25.2H84.6L82,30.8h-2.3l9.7-21.2h2.2l9.7,21.2H99L96.4,25.2z M95.6,23.3L90.5,12l-5.1,11.3H95.6z"/>
<path class="st0" d="M110.8,23.5v7.3h-2.2v-7.3l-8.5-13.8h2.4l7.3,11.9L117,9.7h2.2L110.8,23.5z"/>
<path class="st0" d="M120,20.2c0-6.2,4.7-10.8,11.1-10.8s11.1,4.5,11.1,10.8S137.4,31,131.1,31S120,26.4,120,20.2z M140,20.2
	c0-4.9-4-8.9-8.9-8.9c-4.9,0-8.9,4-8.9,8.9s4,8.9,8.9,8.9C136,29.1,140,25.1,140,20.2z"/>
<path class="st0" d="M149.4,11.6v8.3h11v1.9h-11v9h-2.2V9.7h14.5v1.9C161.7,11.6,149.4,11.6,149.4,11.6z"/>
<path class="st0" d="M168.6,11.6v8.3h10.9v1.9h-10.9v9h-2.2V9.7h14.5v1.9C180.9,11.6,168.6,11.6,168.6,11.6z"/>
<g>
	<polygon class="st1" points="26.3,21.3 33.1,30.7 37.3,17.6 	"/>
	<polygon class="st2" points="26.3,21.3 37.3,17.6 26.2,9.7 	"/>
	<polygon class="st3" points="26.3,21.3 26.2,9.7 15.2,17.7 	"/>
	<polygon class="st4" points="26.3,21.3 15.2,17.7 19.4,30.7 	"/>
	<polygon class="st1" points="26.3,21.3 19.4,30.7 33.1,30.7 	"/>
</g>
</svg>
